<?xml version="1.0" encoding="utf-8"?>
<!-- Generator: Adobe Illustrator 18.1.1, SVG Export Plug-In . SVG Version: 6.00 Build 0)  -->
<svg version="1.1" id="Layer_1" xmlns="http://www.w3.org/2000/svg" xmlns:xlink="http://www.w3.org/1999/xlink" x="0px" y="0px"
	 width="149px" height="183px" viewBox="0 0 149 183" enable-background="new 0 0 149 183" xml:space="preserve">
<path d="M32.1,57.9c0,5.6-1.5,7.4-3.6,7.4c-1.9,0-3.2-1.6-3.8-4.5c-0.6-3-1.1-7.8-1.1-15.6s0.5-12.5,1.1-15.6
	c0.6-2.9,1.8-4.5,3.8-4.5c2.2,0,3.6,1.8,3.6,7.4v3c0,1.9,0.7,2.7,2.7,2.7h15.6c1.9,0,2.7-0.7,2.7-4.6c0-15.6-4.1-32.2-25.1-32.2
	C10.3,1.5,1.8,11.8,1.8,45.3s8.5,43.8,26.1,43.8C48.8,89.1,53,73.6,53,56.8c0-3.9-0.7-4.6-2.7-4.6H34.7c-1.9,0-2.7,0.7-2.7,2.7V57.9
	z M126.3,85.1c0,1.9,0.7,2.8,2.7,2.8h15.6c1.9,0,2.7-0.9,2.7-2.8V5.5c0-1.9-0.7-2.8-2.7-2.8h-10c-2.8,0-3.6,0.9-5.4,3.3l-22.4,28.9
	c-1.3,1.7-2.9,1.6-4.1,0L80.5,6c-1.7-2.4-2.6-3.3-5.4-3.3h-10c-1.9,0-2.7,0.9-2.7,2.8v79.5c0,1.9,0.7,2.8,2.7,2.8h15.6
	c1.9,0,2.7-0.9,2.7-2.8V49.7c0-2.2,2.1-2.2,3-0.9l16.3,21c1.2,1.6,2.9,1.6,4.1,0l16.4-21c1-1.3,3-1.1,3,0.9V85.1z M47.5,150.5
	c1.9,0,2.7-0.9,2.7-2.8v-16.1c0-1.9-0.7-2.8-2.7-2.8H29.4c-1.9,0-2.7-0.7-2.7-2.7v-2.8c0-1.9,0.7-2.7,2.7-2.7h22.4
	c1.9,0,2.7-0.9,2.7-2.8V99.2c0-1.9-0.7-2.8-2.7-2.8H8.1c-1.9,0-2.7,0.9-2.7,2.8v79.5c0,1.9,0.7,2.8,2.7,2.8H24
	c1.9,0,2.7-0.9,2.7-2.8v-25.5c0-1.9,0.7-2.7,2.7-2.7H47.5z M116.9,181.5c1.7,0,2.3-0.7,2.3-1.8c0-0.5-0.1-1.1-0.4-1.8l-14.4-46.6
	c-0.4-1.2-0.6-1.8-0.6-2.6c0-0.9,0.4-1.8,1.2-3.4l13.7-25.4c1.1-2.1,0.5-3.5-1.8-3.5H99.9c-2.2,0-3.2,0.6-4.6,3.4l-9,17.1
	c-0.4,0.7-1,1.3-1.7,1.3s-1.2-0.6-1.2-1.8V99.2c0-1.9-0.7-2.8-2.7-2.8H65.1c-1.9,0-2.7,0.9-2.7,2.8v79.7c0,1.9,0.7,2.7,2.7,2.7h15.6
	c1.9,0,2.7-0.7,2.7-2.7v-19.5c0-2.1,0.4-2.9,1.2-4.5l1.1-2.1c0.7-1.3,1.2-1.7,1.8-1.7s1.1,0.4,1.5,1.5l7.8,25.7
	c0.9,2.8,1.8,3.3,4.7,3.3H116.9z M147.2,99.2c0-1.9-0.7-2.8-2.7-2.8H129c-1.9,0-2.7,0.9-2.7,2.8v50.1c0,1.9,0.7,2.8,2.7,2.8h15.6
	c1.9,0,2.7-0.9,2.7-2.8V99.2z M147.2,163.5c0-1.9-0.7-2.8-2.7-2.8H129c-1.9,0-2.7,0.9-2.7,2.8v15.2c0,1.9,0.7,2.8,2.7,2.8h15.6
	c1.9,0,2.7-0.9,2.7-2.8V163.5z"/>
</svg>
