<?xml version="1.0" encoding="utf-8"?>
<!-- Generator: Adobe Illustrator 18.1.1, SVG Export Plug-In . SVG Version: 6.00 Build 0)  -->
<svg version="1.2" baseProfile="tiny" id="Layer_1" xmlns="http://www.w3.org/2000/svg" xmlns:xlink="http://www.w3.org/1999/xlink"
	 x="0px" y="0px" viewBox="0 0 345.124 99.725" xml:space="preserve">
<g>
	<path fill="#FFFFFF" d="M75.214,79.764c0,3.747-4.62,7.493-10.198,8.076c1.541-4.829,4.912-9.741,8.617-9.741
		C74.673,78.099,75.214,78.682,75.214,79.764 M65.349,98.87c2.956,0,6.078-3.08,8.742-6.743l-0.209-0.167
		c-3.163,4.121-5.369,5.328-7.076,5.328c-1.581,0-2.664-1.373-2.664-4.37c0-1.416,0.292-3.08,0.791-4.745
		c4.912-0.458,12.654-4.163,12.654-7.618c0-1.665-1.748-2.747-4.038-2.747c-6.035,0-12.279,8.824-12.279,15.817
		C61.27,96.664,62.935,98.87,65.349,98.87 M52.196,98.87c1.374,0,3.289-1.457,6.161-5.37l-0.25-0.166
		c-2.831,3.746-4.204,4.62-4.704,4.62c-0.374,0-0.707-0.166-0.707-0.749c0-0.749,0.874-2.706,1.373-3.913l9.948-24.766l-0.208-0.083
		c-1.207,1.748-3.954,1.748-6.077,1.748h-0.624v0.291h1.415c1.207,0,1.499,0.25,1.499,0.791c0,0.333-0.167,0.791-0.333,1.207
		l-8.2,20.438c-0.458,1.165-1.249,2.789-1.249,4.037C50.24,97.954,50.864,98.87,52.196,98.87 M33.632,97.954
		c-0.666,0-0.916-0.624-0.916-1.54c0-4.037,5.037-18.19,9.574-18.19c1.415,0,2.997,1.624,3.787,2.997l-8.033,12.03
		C36.421,95.707,34.548,97.954,33.632,97.954 M42.415,98.87c1.373,0,3.288-1.457,6.16-5.37l-0.25-0.166
		c-2.789,3.705-4.204,4.62-4.703,4.62c-0.375,0-0.708-0.166-0.708-0.749c0-0.749,0.874-2.664,1.332-3.871l5.952-15.443l-0.249-0.083
		c-0.833,1.623-1.499,2.373-3.622,3.164c-0.916-1.416-2.414-3.164-4.537-3.164c-6.16,0-11.946,13.694-11.946,18.315
		c0,2.081,1.332,2.747,2.497,2.747c1.915,0,3.622-1.915,5.953-5.411l7.45-11.197l-4.037,10.614
		c-0.416,1.166-1.249,2.831-1.249,4.079C40.458,97.954,41.083,98.87,42.415,98.87 M24.475,98.537v-0.333h-0.791
		c-1.082,0-1.332-0.499-1.332-0.999c0-0.291,0.042-0.666,0.292-1.249l8.907-23.143c0.708-1.79,1.457-2.289,3.039-2.289h0.458v-0.333
		h-1.166c-0.874,0-1.582,0.125-2.747,0.125c-1.207,0-1.873-0.125-2.747-0.125h-1.416v0.333h0.791c1.083,0,1.332,0.499,1.332,0.999
		c0,0.291-0.041,0.666-0.291,1.249l-4.287,11.155H10.864l4.287-11.114c0.708-1.79,1.457-2.289,3.039-2.289h0.458v-0.333h-1.166
		c-0.874,0-1.582,0.125-2.747,0.125c-1.207,0-1.873-0.125-2.747-0.125h-1.416v0.333h0.791c1.083,0,1.332,0.499,1.332,0.999
		c0,0.291-0.041,0.666-0.291,1.249L3.496,95.915c-0.707,1.79-1.457,2.289-3.038,2.289H0v0.333h1.165
		c0.874,0,1.582-0.125,2.748-0.125c1.207,0,1.873,0.125,2.747,0.125h1.415v-0.333H7.284c-1.082,0-1.332-0.499-1.332-0.999
		c0-0.291,0.042-0.666,0.292-1.249l4.495-11.655h13.653l-4.496,11.614c-0.707,1.79-1.457,2.289-3.038,2.289H16.4v0.333h1.165
		c0.874,0,1.582-0.125,2.748-0.125c1.207,0,1.873,0.125,2.747,0.125H24.475z"/>
	<path fill="#FFFFFF" d="M119.307,64.649c1.374,0,3.289-1.457,6.161-5.37l-0.25-0.166c-2.789,3.705-4.204,4.62-4.704,4.62
		c-0.374,0-0.707-0.166-0.707-0.749c0-0.749,0.874-2.706,1.457-3.871l4.537-9.282c0.666-1.374,1.415-3.122,1.415-4.329
		c0-0.916-0.583-1.915-1.873-1.915c-2.04,0-3.497,1.832-7.035,6.66l-9.365,12.82l5.702-13.486c0.5-1.166,1.249-2.914,1.249-4.079
		c0-0.999-0.624-1.915-1.956-1.915c-1.374,0-3.33,1.415-6.202,5.37l0.249,0.166c2.789-3.746,4.204-4.62,4.787-4.62
		c0.375,0,0.666,0.25,0.666,0.749c0,0.749-0.916,2.664-1.415,3.871l-6.327,15.193c0.416,0,0.957-0.083,1.374-0.083
		c0.416,0,0.957,0.083,1.373,0.083l10.115-13.861c3.621-4.953,4.703-5.952,5.411-5.952c0.458,0,0.791,0.291,0.791,0.916
		c0,0.749-0.708,2.289-1.665,4.245l-4.412,9.033c-0.541,1.124-1.332,2.789-1.332,4.037
		C117.351,63.733,117.975,64.649,119.307,64.649 M92.502,64.649c7.617,0,12.279-10.364,12.279-15.151
		c0-4.163-2.747-5.911-4.62-5.911c-7.618,0-12.28,10.365-12.28,15.151C87.881,62.901,90.629,64.649,92.502,64.649 M92.502,64.358
		c-1.457,0-2.498-0.874-2.498-3.081c0-2.788,1.748-8.533,4.288-12.653c1.706-2.748,3.746-4.746,5.869-4.746
		c1.456,0,2.497,0.875,2.497,3.081c0,2.788-1.748,8.533-4.287,12.653C96.664,62.36,94.625,64.358,92.502,64.358 M77.101,64.649
		c3.205,0,6.493-2.456,6.493-6.202c0-1.665-0.666-3.08-1.748-4.371l-1.457-1.748c-1.665-2.081-2.331-3.33-2.331-4.828
		c0-2.414,1.873-3.622,3.705-3.622c1.789,0,2.664,0.958,3.038,3.039c0.208,1.082,0.708,1.29,1.249,1.29s1.082-0.416,1.082-1.082
		c0-1.582-2.372-3.538-5.286-3.538c-2.664,0-5.661,2.165-5.661,5.827c0,1.541,0.916,3.039,2.248,4.704l1.29,1.582
		c1.374,1.665,1.956,3.163,1.956,4.537c0,1.956-1.789,4.121-4.37,4.121c-2.331,0-3.372-1.207-3.913-4.204
		c-0.208-1.041-0.708-1.291-1.165-1.291c-0.541,0-1.083,0.458-1.083,1.124C71.148,62.235,73.313,64.649,77.101,64.649
		 M69.901,49.581c0.541-1.124,1.332-2.83,1.332-4.079c0-0.999-0.625-1.915-1.957-1.915c-1.373,0-3.288,1.457-6.16,5.37l0.25,0.166
		c2.83-3.746,4.204-4.62,4.703-4.62c0.375,0,0.708,0.166,0.708,0.749c0,0.749-0.833,2.706-1.415,3.871l-4.621,9.532
		c-0.541,1.124-1.332,2.831-1.332,4.079c0,0.999,0.625,1.915,1.957,1.915c1.373,0,3.288-1.457,6.16-5.37l-0.25-0.166
		c-2.83,3.746-4.204,4.62-4.703,4.62c-0.375,0-0.708-0.166-0.708-0.749c0-0.749,0.833-2.706,1.415-3.871L69.901,49.581z
		 M72.565,39.508c1.082,0,1.956-0.791,1.956-1.915c0-1.124-0.874-1.956-1.956-1.956c-1.083,0-1.915,0.832-1.915,1.956
		C70.65,38.717,71.482,39.508,72.565,39.508 M52.585,64.649c1.374,0,3.288-1.457,6.16-5.37l-0.249-0.166
		c-2.831,3.746-4.204,4.62-4.704,4.62c-0.374,0-0.707-0.166-0.707-0.749c0-0.749,0.874-2.706,1.373-3.913l9.948-24.766l-0.208-0.083
		c-1.207,1.748-3.954,1.748-6.077,1.748h-0.624v0.291h1.415c1.207,0,1.498,0.25,1.498,0.791c0,0.333-0.166,0.791-0.333,1.207
		l-8.2,20.438c-0.457,1.165-1.248,2.789-1.248,4.037C50.629,63.733,51.253,64.649,52.585,64.649 M42.637,64.649
		c1.373,0,3.288-1.457,6.16-5.37l-0.249-0.166c-2.831,3.746-4.205,4.62-4.704,4.62c-0.375,0-0.708-0.166-0.708-0.749
		c0-0.749,0.874-2.706,1.374-3.913l9.948-24.766l-0.208-0.083c-1.207,1.748-3.954,1.748-6.077,1.748h-0.624v0.291h1.415
		c1.207,0,1.498,0.25,1.498,0.791c0,0.333-0.166,0.791-0.333,1.207l-8.2,20.438c-0.458,1.165-1.248,2.789-1.248,4.037
		C40.681,63.733,41.305,64.649,42.637,64.649 M32.939,56.074H20.868l12.237-16.316L32.939,56.074z M37.767,64.316v-0.333h-0.125
		c-1.54,0-2.164-0.666-2.164-2.373l0.291-25.64c-0.541,0-0.832,0.083-1.332,0.083c-0.499,0-0.832-0.083-1.457-0.083l0.083,3.247
		L18.162,59.03c-2.498,3.371-4.204,4.953-5.994,4.953h-0.291v0.333h0.791c0.624,0,2.247-0.125,2.872-0.125
		c0.874,0,2.081,0.125,2.955,0.125h0.999v-0.333h-0.458c-1.332,0-1.998-0.583-1.998-1.79c0.042-0.749,0.583-1.79,1.457-2.955
		l2.081-2.789h12.363l-0.084,5.12c-0.041,1.498-1.04,2.372-2.372,2.414h-0.458v0.333h0.832c0.541,0,1.832-0.125,3.039-0.125
		c1.082,0,2.04,0.125,2.622,0.125H37.767z"/>
	<path fill="#FFFFFF" d="M185.101,11.321c0,3.747-4.62,7.493-10.198,8.076c1.54-4.829,4.912-9.741,8.616-9.741
		C184.56,9.656,185.101,10.239,185.101,11.321 M175.236,30.427c2.955,0,6.077-3.08,8.741-6.743l-0.208-0.167
		c-3.164,4.121-5.37,5.328-7.076,5.328c-1.582,0-2.664-1.373-2.664-4.37c0-1.416,0.291-3.08,0.791-4.745
		c4.911-0.458,12.654-4.163,12.654-7.618c0-1.665-1.749-2.747-4.038-2.747c-6.036,0-12.279,8.824-12.279,15.817
		C171.157,28.221,172.822,30.427,175.236,30.427 M162,30.427c1.373,0,3.288-1.457,6.16-5.37l-0.25-0.166
		c-2.788,3.705-4.204,4.62-4.703,4.62c-0.375,0-0.708-0.166-0.708-0.749c0-0.749,0.874-2.706,1.457-3.871l4.537-9.282
		c0.666-1.374,1.415-3.122,1.415-4.329c0-0.916-0.582-1.915-1.873-1.915c-2.039,0-3.496,1.832-7.034,6.66l-9.366,12.82l5.703-13.486
		c0.499-1.166,1.249-2.914,1.249-4.079c0-0.999-0.625-1.915-1.957-1.915c-1.373,0-3.33,1.415-6.202,5.37l0.25,0.166
		c2.789-3.746,4.204-4.62,4.787-4.62c0.374,0,0.666,0.25,0.666,0.749c0,0.749-0.916,2.664-1.415,3.871l-6.327,15.193
		c0.416,0,0.957-0.083,1.373-0.083c0.417,0,0.958,0.083,1.374,0.083l10.115-13.861c3.621-4.953,4.703-5.952,5.411-5.952
		c0.458,0,0.791,0.291,0.791,0.916c0,0.749-0.708,2.289-1.665,4.245l-4.413,9.033c-0.541,1.124-1.332,2.789-1.332,4.037
		C160.043,29.511,160.668,30.427,162,30.427 M146.266,15.359c0.542-1.124,1.332-2.83,1.332-4.079c0-0.999-0.624-1.915-1.956-1.915
		c-1.374,0-3.288,1.457-6.16,5.37l0.249,0.166c2.831-3.746,4.204-4.62,4.704-4.62c0.375,0,0.708,0.166,0.708,0.749
		c0,0.749-0.833,2.706-1.416,3.871l-4.62,9.532c-0.541,1.124-1.332,2.831-1.332,4.079c0,0.999,0.624,1.915,1.956,1.915
		c1.374,0,3.289-1.457,6.161-5.37l-0.25-0.166c-2.83,3.746-4.204,4.62-4.703,4.62c-0.375,0-0.708-0.166-0.708-0.749
		c0-0.749,0.832-2.706,1.415-3.871L146.266,15.359z M148.93,5.286c1.083,0,1.957-0.791,1.957-1.915s-0.874-1.956-1.957-1.956
		c-1.082,0-1.914,0.832-1.914,1.956S147.848,5.286,148.93,5.286 M124.58,30.094l6.535-11.447c2.373-4.162,4.746-5.952,6.993-6.66
		c0.75-0.249,1.749-0.624,1.749-1.498c0-0.583-0.417-1.124-1.166-1.124c-1.998,0-5.869,5.578-7.825,9.074l-5.578,9.907l4.995-12.987
		c0.458-1.166,1.124-2.914,1.124-4.079c0-0.999-0.625-1.915-1.957-1.915c-1.373,0-3.33,1.415-6.202,5.37l0.25,0.166
		c2.831-3.788,4.204-4.62,4.787-4.62c0.375,0,0.666,0.25,0.666,0.749c0,0.749-0.833,2.664-1.29,3.871l-5.828,15.193
		c0.416,0,0.958-0.083,1.374-0.083C123.623,30.011,124.164,30.094,124.58,30.094 M119.378,11.321c0,3.747-4.621,7.493-10.198,8.076
		c1.54-4.829,4.911-9.741,8.616-9.741C118.836,9.656,119.378,10.239,119.378,11.321 M109.513,30.427c2.955,0,6.077-3.08,8.741-6.743
		l-0.208-0.167c-3.164,4.121-5.37,5.328-7.077,5.328c-1.581,0-2.664-1.373-2.664-4.37c0-1.416,0.292-3.08,0.791-4.745
		c4.912-0.458,12.654-4.163,12.654-7.618c0-1.665-1.748-2.747-4.037-2.747c-6.036,0-12.28,8.824-12.28,15.817
		C105.433,28.221,107.098,30.427,109.513,30.427 M96.277,30.427c1.373,0,3.288-1.457,6.16-5.37l-0.25-0.166
		c-2.789,3.705-4.204,4.62-4.703,4.62c-0.375,0-0.708-0.166-0.708-0.749c0-0.749,0.874-2.706,1.457-3.871l4.537-9.282
		c0.666-1.374,1.415-3.122,1.415-4.329c0-0.916-0.583-1.915-1.873-1.915c-2.039,0-3.496,1.832-7.034,6.66l-9.366,12.862
		L97.484,0.083L97.276,0c-1.208,1.748-3.913,1.748-6.078,1.748h-0.624v0.291h1.415c1.207,0,1.499,0.25,1.499,0.791
		c0,0.333-0.167,0.791-0.333,1.207L82.707,30.094c0.416,0,0.957-0.083,1.374-0.083c0.416,0,0.915,0.083,1.332,0.083l10.114-13.861
		c3.622-4.953,4.704-5.952,5.412-5.952c0.457,0,0.79,0.291,0.79,0.916c0,0.749-0.707,2.289-1.665,4.245l-4.412,9.033
		c-0.541,1.124-1.332,2.789-1.332,4.037C94.32,29.511,94.945,30.427,96.277,30.427 M74.882,30.427c1.373,0,3.288-1.457,6.16-5.37
		l-0.25-0.166c-2.83,3.746-4.204,4.62-4.703,4.62c-0.375,0-0.708-0.166-0.708-0.749c0-0.749,0.874-2.747,1.374-3.954l5.869-14.777
		h4.579V9.698h-4.454l2.331-5.744l-0.208-0.083c-0.625,1.373-1.873,2.705-3.788,3.163l-1.041,2.664h-2.997v0.333h2.872
		l-5.702,14.236c-0.5,1.207-1.291,2.997-1.291,4.245C72.925,29.511,73.55,30.427,74.882,30.427 M55.818,29.511
		c-0.666,0-0.916-0.624-0.916-1.54c0-4.037,5.037-18.19,9.574-18.19c1.415,0,2.997,1.624,3.788,2.997l-8.034,12.03
		C58.607,27.264,56.734,29.511,55.818,29.511 M64.601,30.427c1.373,0,3.288-1.457,6.16-5.37l-0.25-0.166
		c-2.789,3.705-4.204,4.62-4.703,4.62c-0.375,0-0.708-0.166-0.708-0.749c0-0.749,0.874-2.664,1.332-3.871l5.952-15.443l-0.249-0.083
		c-0.833,1.623-1.499,2.373-3.622,3.164c-0.915-1.416-2.414-3.164-4.537-3.164c-6.16,0-11.946,13.694-11.946,18.315
		c0,2.081,1.332,2.747,2.498,2.747c1.914,0,3.621-1.915,5.952-5.411l7.451-11.197l-4.038,10.614
		c-0.416,1.166-1.249,2.831-1.249,4.079C62.644,29.511,63.269,30.427,64.601,30.427 M48.825,30.094v-0.333H48.45
		c-1.415,0-2.164-0.416-2.455-1.915l-2.831-14.735l8.575-7.201c1.748-1.457,4.787-3.788,6.66-3.829h0.457V1.748h-1.207
		c-0.624,0-1.581,0.125-2.58,0.125c-0.666,0-1.998-0.125-2.664-0.125h-1.124v0.333h0.416c0.916,0,1.415,0.541,1.415,1.207
		c-0.041,0.832-0.541,1.415-1.623,2.331l-8.616,7.243c-0.333,0.041-0.791,0.083-1.124,0.083c-0.375,0-0.791-0.083-1.249-0.083
		l0.333,1.748l-6.868,5.744L40.126,4.37c0.707-1.79,1.456-2.289,3.038-2.289h0.458V1.748h-1.166c-0.874,0-1.581,0.125-2.747,0.125
		c-1.207,0-1.873-0.125-2.747-0.125h-1.415v0.333h0.791c1.082,0,1.332,0.499,1.332,0.999c0,0.291-0.042,0.666-0.292,1.249
		l-8.907,23.143c-0.708,1.79-1.457,2.289-3.039,2.289h-0.458v0.333h1.166c0.874,0,1.581-0.125,2.747-0.125
		c1.207,0,1.873,0.125,2.747,0.125h1.415v-0.333h-0.79c-1.083,0-1.332-0.499-1.332-0.999c0-0.291,0.041-0.666,0.291-1.249
		l2.497-6.493l7.201-5.994l2.29,12.196c0.083,0.541,0.083,0.874,0.083,1.124c0,0.999-0.749,1.415-2.248,1.415h-0.416v0.333h1.415
		c0.5,0,1.457-0.125,2.581-0.125c1.165,0,1.956,0.125,2.497,0.125H48.825z"/>
	<path fill="#FFFFFF" d="M333.811,99.355c-2.468,0-4.443-1.44-4.443-10.038c0-8.598,1.975-10.038,4.443-10.038
		c2.88,0,4.978,1.605,6.253,2.757v14.563C338.789,97.751,336.691,99.355,333.811,99.355 M333.811,99.725
		c2.921,0,5.06-1.604,6.253-2.633v2.304c0.329,0,0.699-0.082,1.358-0.082c1.357,0,2.015,0.082,3.044,0.082h0.576v-0.288h-0.041
		c-1.893,0-2.222-0.288-2.222-2.057V69.612h-0.247c-0.329,0.946-2.715,1.769-4.484,1.769h-0.247v0.288h0.042
		c1.892,0,2.221,0.247,2.221,2.016v7.857c-1.234-1.07-3.332-2.633-6.253-2.633c-3.373,0-7.57,2.551-7.57,10.408
		C326.241,97.175,330.439,99.725,333.811,99.725 M319.783,99.396v-0.288h-0.576c-1.892,0-2.674-0.288-2.674-2.057V84.175
		c1.111-1.687,2.427-3.456,3.62-3.456c0.905,0,1.811,0.37,2.592,0.37c1.07,0,1.605-0.411,1.605-1.11c0-0.658-0.618-1.07-1.646-1.07
		c-1.399,0-2.386,0.576-3.127,1.193c-0.987,0.823-1.974,1.893-3.044,3.538v-4.731h-0.247c-0.329,0.946-2.715,1.769-4.484,1.769
		h-0.247v0.288h0.042c1.892,0,2.221,0.247,2.221,2.016v14.069c0,1.769-0.329,2.057-2.221,2.057h-0.042v0.288h0.576
		c1.029,0,1.687-0.123,3.045-0.123c1.604,0,2.386,0.123,3.661,0.123H319.783z M299.379,99.396c-3.374,0-5.678-1.769-5.678-10.079
		s2.304-10.079,5.678-10.079c3.373,0,5.677,1.769,5.677,10.079S302.753,99.396,299.379,99.396 M299.379,99.725
		c4.854,0,8.803-4.525,8.803-10.408s-3.949-10.408-8.803-10.408c-4.855,0-8.804,4.525-8.804,10.408S294.525,99.725,299.379,99.725
		 M283.706,91.333V79.938h-0.288c-0.329,3.291-0.699,5.471-4.032,5.471h-5.389V71.792h7.529c1.645,0,2.756,0.329,3.949,1.605
		c1.152,1.234,2.509,3.085,4.649,6.088l0.246-0.123l-3.784-9.298l-0.247,0.083c0.082,0.781-0.247,1.234-1.358,1.234h-9.503
		c-0.946,0-1.604,0.041-2.879,0.041c-1.276,0-1.934-0.041-2.88-0.041h-0.658v0.329h0.041c1.728,0,2.098,0.247,2.098,2.016v23.325
		c0,1.769-0.37,2.016-2.098,2.016h-0.041v0.329h0.658c1.028,0,1.728-0.123,3.085-0.123c1.605,0,2.386,0.123,3.662,0.123h1.234
		v-0.329h-0.823c-2.098,0-2.88-0.411-2.88-2.057V85.82h5.389c3.333,0,3.703,2.263,4.032,5.513H283.706z"/>
	<path fill="#FFFFFF" d="M342.78,61.746v-27.44h-0.247c-0.329,0.947-2.715,1.769-4.484,1.769h-0.247v0.288h0.041
		c1.893,0,2.222,0.247,2.222,2.016v23.367c0,1.769-0.329,2.057-2.222,2.057h-0.041v0.288h0.576c1.029,0,1.687-0.124,3.045-0.124
		c1.357,0,2.015,0.124,3.044,0.124h0.576v-0.288h-0.041C343.109,63.803,342.78,63.515,342.78,61.746 M331.714,50.721h-10.079
		c0.411-3.785,2.221-6.788,5.43-6.788C329.369,43.933,331.632,45.373,331.714,50.721 M327.065,64.42c3.538,0,6.13-2.016,7.405-6.006
		l-0.247-0.083c-1.234,3.703-3.496,5.184-6.129,5.184c-4.073,0-6.541-4.772-6.541-10.573c0-0.658,0-1.234,0.041-1.851h12.917
		c0.206-4.854-3.702-7.487-7.24-7.487c-4.525,0-8.845,3.908-8.845,10.778C318.426,60.594,322.705,64.42,327.065,64.42
		 M304.069,63.967c-2.057,0-2.757-2.139-2.757-4.854c0-2.88,0.453-5.266,3.703-6.623l5.183-2.139v10.202v0.74
		C308.512,62.733,305.961,63.967,304.069,63.967 M312.708,64.42c1.81,0,2.838-1.234,3.291-2.098l-0.206-0.123
		c-0.452,0.781-1.193,1.481-1.892,1.481c-0.658,0-0.987-0.453-0.987-1.44V47.347c0-2.221-1.111-3.743-4.773-3.743
		c-4.813,0-9.132,2.55-9.132,4.114c0,0.658,0.576,1.069,1.069,1.069c0.494,0,0.823-0.247,1.193-0.699
		c1.852-2.263,3.785-4.155,6.829-4.155c1.769,0,2.098,0.823,2.098,2.839v3.208l-5.306,2.14c-3.58,1.439-6.706,3.496-6.706,7.075
		c0,3.209,2.098,5.225,5.512,5.225c2.345,0,4.896-1.358,6.5-2.715C310.198,63.145,310.939,64.42,312.708,64.42 M292.509,46.484
		c0-2.14-0.987-2.88-2.55-2.88c-1.399,0-3.127,0.617-5.225,1.44l-4.361,1.686V34.306h-0.246c-0.33,0.947-2.716,1.769-4.485,1.769
		h-0.246v0.288h0.041c1.892,0,2.221,0.247,2.221,2.016v23.367c0,1.769-0.329,2.057-2.221,2.057h-0.041v0.288h0.576
		c1.028,0,1.686-0.124,3.044-0.124c1.357,0,2.016,0.124,3.044,0.124h0.576v-0.288h-0.041c-1.892,0-2.222-0.288-2.222-2.057V47.101
		l4.485-1.728c1.234-0.453,2.55-0.988,3.496-0.988c0.988,0,1.44,0.618,1.44,1.975v15.386c0,1.769-0.329,2.057-2.221,2.057h-0.041
		v0.288h0.575c1.029,0,1.687-0.124,3.045-0.124c1.357,0,2.016,0.124,3.044,0.124h0.576v-0.288h-0.041
		c-1.893,0-2.222-0.288-2.222-2.057V46.484z M264.906,64.42c3.538,0,6.13-2.016,7.405-6.006l-0.247-0.083
		c-1.275,3.785-3.538,5.184-6.13,5.184c-3.538,0-6.541-3.785-6.541-10.778c0-5.06,1.893-8.804,5.677-8.804
		c2.51,0,3.991,1.358,4.526,3.949c0.123,0.576,0.205,1.111,0.329,1.44c0.206,0.617,0.658,0.823,1.111,0.823
		c0.658,0,1.11-0.494,1.11-1.152c0-2.263-3.044-5.389-7.034-5.389c-4.526,0-8.845,3.908-8.845,10.737
		C256.267,60.553,260.545,64.42,264.906,64.42 M249.479,39.737c1.111,0,2.016-0.823,2.016-1.975s-0.905-2.016-2.016-2.016
		c-1.111,0-1.975,0.864-1.975,2.016S248.368,39.737,249.479,39.737 M253.099,64.091v-0.288h-0.041c-1.892,0-2.221-0.288-2.221-2.057
		V43.604h-0.247c-0.329,0.946-2.715,1.769-4.484,1.769h-0.247v0.288h0.041c1.892,0,2.221,0.247,2.221,2.016v14.069
		c0,1.769-0.329,2.057-2.221,2.057h-0.041v0.288h0.576c1.028,0,1.686-0.124,3.044-0.124s2.016,0.124,3.044,0.124H253.099z
		 M240.141,61.746V38.42c0-1.769,0.37-2.015,2.098-2.015h0.041v-0.33h-0.658c-0.987,0-1.481,0.083-2.016,0.083
		c-1.152,0-1.851-0.083-2.262-0.083l-10.573,24.313l-11.313-24.313c-0.823,0-1.646,0.042-2.51,0.042
		c-0.822,0-1.234-0.042-2.18-0.042h-0.411v0.33h0.164c1.275,0,2.016,0.575,2.715,1.974v20.323c0,2.591-0.493,5.06-3.579,5.06h-0.041
		v0.329h0.987c0.576,0,1.605-0.124,2.88-0.124c1.234,0,2.263,0.124,2.839,0.124h1.028v-0.329h-0.041
		c-3.126-0.041-3.661-2.469-3.661-5.06v-19.87l11.765,25.259c0.741,0,0.947-0.041,1.522-0.041c0.494,0,0.782,0.041,1.564,0.041
		l-1.481-3.168l10.326-23.737v24.56c0,1.769-0.371,2.016-2.098,2.016h-0.042v0.329h0.659c0.946,0,1.604-0.124,2.879-0.124
		c1.276,0,1.934,0.124,2.88,0.124h0.658v-0.329h-0.041C240.511,63.762,240.141,63.515,240.141,61.746"/>
	<path fill="#FFFFFF" d="M345.124,29.785v-0.288h-0.041c-1.893,0-2.222-0.288-2.222-2.057V12.178c0-2.14-0.987-2.88-2.55-2.88
		c-1.399,0-3.127,0.617-5.225,1.44l-4.361,1.686V9.298h-0.246c-0.33,0.946-2.716,1.769-4.485,1.769h-0.246v0.288h0.041
		c1.892,0,2.221,0.247,2.221,2.016V27.44c0,1.769-0.329,2.057-2.221,2.057h-0.041v0.288h0.576c1.028,0,1.686-0.124,3.044-0.124
		c1.357,0,2.016,0.124,3.044,0.124h0.576v-0.288h-0.041c-1.893,0-2.222-0.288-2.222-2.057V12.795l4.484-1.728
		c1.235-0.453,2.551-0.988,3.497-0.988c0.988,0,1.44,0.618,1.44,1.975V27.44c0,1.769-0.329,2.057-2.221,2.057h-0.041v0.288h0.575
		c1.029,0,1.687-0.124,3.045-0.124c1.357,0,2.015,0.124,3.044,0.124H345.124z M318.919,5.431c1.11,0,2.015-0.823,2.015-1.975
		s-0.905-2.016-2.015-2.016c-1.111,0-1.975,0.864-1.975,2.016S317.808,5.431,318.919,5.431 M322.539,29.785v-0.288h-0.041
		c-1.893,0-2.222-0.288-2.222-2.057V9.298h-0.247c-0.329,0.946-2.715,1.769-4.484,1.769h-0.247v0.288h0.042
		c1.892,0,2.221,0.247,2.221,2.016V27.44c0,1.769-0.329,2.057-2.221,2.057h-0.042v0.288h0.576c1.029,0,1.687-0.124,3.045-0.124
		c1.357,0,2.015,0.124,3.044,0.124H322.539z M309.828,27.44V0h-0.247c-0.329,0.947-2.715,1.769-4.484,1.769h-0.247v0.288h0.041
		c1.892,0,2.221,0.247,2.221,2.016V27.44c0,1.769-0.329,2.057-2.221,2.057h-0.041v0.288h0.576c1.028,0,1.686-0.124,3.044-0.124
		s2.016,0.124,3.044,0.124h0.576v-0.288h-0.041C310.157,29.497,309.828,29.209,309.828,27.44 M292.879,29.785
		c-3.374,0-5.677-1.769-5.677-10.079s2.303-10.079,5.677-10.079c3.373,0,5.677,1.769,5.677,10.079S296.252,29.785,292.879,29.785
		 M292.879,30.114c4.854,0,8.803-4.525,8.803-10.408c0-5.883-3.949-10.408-8.803-10.408c-4.855,0-8.804,4.525-8.804,10.408
		C284.075,25.589,288.024,30.114,292.879,30.114 M270.006,30.114c4.896,0,8.968-3.497,10.943-7.611l-0.288-0.123
		c-2.016,3.785-4.772,5.759-8.763,5.759c-6.17,0-11.107-5.924-11.107-15.098c0-7.075,4.649-11.313,9.462-11.313
		c3.455,0,6.623,2.057,10.49,8.434l0.247-0.124L277.205,0.7l-0.247,0.082c0.042,0.699-0.205,1.358-1.357,1.358
		c-1.111,0-2.839-0.782-5.348-0.782c-4.731,0-11.889,4.361-11.889,14.316C258.364,23.943,263.136,30.114,270.006,30.114"/>
</g>
</svg>
