<?xml version="1.0" encoding="utf-8"?>
<!-- Generator: Adobe Illustrator 18.1.1, SVG Export Plug-In . SVG Version: 6.00 Build 0)  -->
<svg version="1.2" baseProfile="tiny" id="Layer_1" xmlns="http://www.w3.org/2000/svg" xmlns:xlink="http://www.w3.org/1999/xlink"
	 x="0px" y="0px" viewBox="0 0 187.474 134.085" xml:space="preserve">
<g>
	<path fill="#FFFFFF" d="M75.214,79.764c0,3.747-4.62,7.493-10.198,8.076c1.541-4.829,4.912-9.741,8.617-9.741
		C74.673,78.099,75.214,78.682,75.214,79.764 M65.349,98.87c2.956,0,6.078-3.08,8.742-6.743l-0.209-0.167
		c-3.163,4.121-5.369,5.328-7.076,5.328c-1.581,0-2.664-1.373-2.664-4.37c0-1.416,0.292-3.08,0.791-4.745
		c4.912-0.458,12.654-4.163,12.654-7.618c0-1.665-1.748-2.747-4.038-2.747c-6.035,0-12.279,8.824-12.279,15.817
		C61.27,96.664,62.935,98.87,65.349,98.87 M52.196,98.87c1.374,0,3.289-1.457,6.161-5.37l-0.25-0.166
		c-2.831,3.746-4.204,4.62-4.704,4.62c-0.374,0-0.707-0.166-0.707-0.749c0-0.749,0.874-2.706,1.373-3.913l9.948-24.766l-0.208-0.083
		c-1.207,1.748-3.954,1.748-6.077,1.748h-0.624v0.291h1.415c1.207,0,1.499,0.25,1.499,0.791c0,0.333-0.167,0.791-0.333,1.207
		l-8.2,20.438c-0.458,1.165-1.249,2.789-1.249,4.037C50.24,97.954,50.864,98.87,52.196,98.87 M33.632,97.954
		c-0.666,0-0.916-0.624-0.916-1.54c0-4.037,5.037-18.19,9.574-18.19c1.415,0,2.997,1.624,3.787,2.997l-8.033,12.03
		C36.421,95.707,34.548,97.954,33.632,97.954 M42.415,98.87c1.373,0,3.288-1.457,6.16-5.37l-0.25-0.166
		c-2.789,3.705-4.204,4.62-4.703,4.62c-0.375,0-0.708-0.166-0.708-0.749c0-0.749,0.874-2.664,1.332-3.871l5.952-15.443l-0.249-0.083
		c-0.833,1.623-1.499,2.373-3.622,3.164c-0.916-1.416-2.414-3.164-4.537-3.164c-6.16,0-11.946,13.694-11.946,18.315
		c0,2.081,1.332,2.747,2.497,2.747c1.915,0,3.622-1.915,5.953-5.411l7.45-11.197l-4.037,10.614
		c-0.416,1.166-1.249,2.831-1.249,4.079C40.458,97.954,41.083,98.87,42.415,98.87 M24.475,98.537v-0.333h-0.791
		c-1.082,0-1.332-0.499-1.332-0.999c0-0.291,0.042-0.666,0.292-1.249l8.907-23.143c0.708-1.79,1.457-2.289,3.039-2.289h0.458v-0.333
		h-1.166c-0.874,0-1.582,0.125-2.747,0.125c-1.207,0-1.873-0.125-2.747-0.125h-1.416v0.333h0.791c1.083,0,1.332,0.499,1.332,0.999
		c0,0.291-0.041,0.666-0.291,1.249l-4.287,11.155H10.864l4.287-11.114c0.708-1.79,1.457-2.289,3.039-2.289h0.458v-0.333h-1.166
		c-0.874,0-1.582,0.125-2.747,0.125c-1.207,0-1.873-0.125-2.747-0.125h-1.416v0.333h0.791c1.083,0,1.332,0.499,1.332,0.999
		c0,0.291-0.041,0.666-0.291,1.249L3.496,95.915c-0.707,1.79-1.457,2.289-3.038,2.289H0v0.333h1.165
		c0.874,0,1.582-0.125,2.748-0.125c1.207,0,1.873,0.125,2.747,0.125h1.415v-0.333H7.284c-1.082,0-1.332-0.499-1.332-0.999
		c0-0.291,0.042-0.666,0.292-1.249l4.495-11.655h13.653l-4.496,11.614c-0.707,1.79-1.457,2.289-3.038,2.289H16.4v0.333h1.165
		c0.874,0,1.582-0.125,2.748-0.125c1.207,0,1.873,0.125,2.747,0.125H24.475z"/>
	<path fill="#FFFFFF" d="M119.307,64.649c1.374,0,3.289-1.457,6.161-5.37l-0.25-0.166c-2.789,3.705-4.204,4.62-4.704,4.62
		c-0.374,0-0.707-0.166-0.707-0.749c0-0.749,0.874-2.706,1.457-3.871l4.537-9.282c0.666-1.374,1.415-3.122,1.415-4.329
		c0-0.916-0.583-1.915-1.873-1.915c-2.04,0-3.497,1.832-7.035,6.66l-9.365,12.82l5.702-13.486c0.5-1.166,1.249-2.914,1.249-4.079
		c0-0.999-0.624-1.915-1.956-1.915c-1.374,0-3.33,1.415-6.202,5.37l0.249,0.166c2.789-3.746,4.204-4.62,4.787-4.62
		c0.375,0,0.666,0.25,0.666,0.749c0,0.749-0.916,2.664-1.415,3.871l-6.327,15.193c0.416,0,0.957-0.083,1.374-0.083
		c0.416,0,0.957,0.083,1.373,0.083l10.115-13.861c3.621-4.953,4.703-5.952,5.411-5.952c0.458,0,0.791,0.291,0.791,0.916
		c0,0.749-0.708,2.289-1.665,4.245l-4.412,9.033c-0.541,1.124-1.332,2.789-1.332,4.037
		C117.351,63.733,117.975,64.649,119.307,64.649 M92.502,64.649c7.617,0,12.279-10.364,12.279-15.151
		c0-4.163-2.747-5.911-4.62-5.911c-7.618,0-12.28,10.365-12.28,15.151C87.881,62.901,90.629,64.649,92.502,64.649 M92.502,64.358
		c-1.457,0-2.498-0.874-2.498-3.081c0-2.788,1.748-8.533,4.288-12.653c1.706-2.748,3.746-4.746,5.869-4.746
		c1.456,0,2.497,0.875,2.497,3.081c0,2.788-1.748,8.533-4.287,12.653C96.664,62.36,94.625,64.358,92.502,64.358 M77.101,64.649
		c3.205,0,6.493-2.456,6.493-6.202c0-1.665-0.666-3.08-1.748-4.371l-1.457-1.748c-1.665-2.081-2.331-3.33-2.331-4.828
		c0-2.414,1.873-3.622,3.705-3.622c1.789,0,2.664,0.958,3.038,3.039c0.208,1.082,0.708,1.29,1.249,1.29s1.082-0.416,1.082-1.082
		c0-1.582-2.372-3.538-5.286-3.538c-2.664,0-5.661,2.165-5.661,5.827c0,1.541,0.916,3.039,2.248,4.704l1.29,1.582
		c1.374,1.665,1.956,3.163,1.956,4.537c0,1.956-1.789,4.121-4.37,4.121c-2.331,0-3.372-1.207-3.913-4.204
		c-0.208-1.041-0.708-1.291-1.165-1.291c-0.541,0-1.083,0.458-1.083,1.124C71.148,62.235,73.313,64.649,77.101,64.649
		 M69.901,49.581c0.541-1.124,1.332-2.83,1.332-4.079c0-0.999-0.625-1.915-1.957-1.915c-1.373,0-3.288,1.457-6.16,5.37l0.25,0.166
		c2.83-3.746,4.204-4.62,4.703-4.62c0.375,0,0.708,0.166,0.708,0.749c0,0.749-0.833,2.706-1.415,3.871l-4.621,9.532
		c-0.541,1.124-1.332,2.831-1.332,4.079c0,0.999,0.625,1.915,1.957,1.915c1.373,0,3.288-1.457,6.16-5.37l-0.25-0.166
		c-2.83,3.746-4.204,4.62-4.703,4.62c-0.375,0-0.708-0.166-0.708-0.749c0-0.749,0.833-2.706,1.415-3.871L69.901,49.581z
		 M72.565,39.508c1.082,0,1.956-0.791,1.956-1.915c0-1.124-0.874-1.956-1.956-1.956c-1.083,0-1.915,0.832-1.915,1.956
		C70.65,38.717,71.482,39.508,72.565,39.508 M52.585,64.649c1.374,0,3.288-1.457,6.16-5.37l-0.249-0.166
		c-2.831,3.746-4.204,4.62-4.704,4.62c-0.374,0-0.707-0.166-0.707-0.749c0-0.749,0.874-2.706,1.373-3.913l9.948-24.766l-0.208-0.083
		c-1.207,1.748-3.954,1.748-6.077,1.748h-0.624v0.291h1.415c1.207,0,1.498,0.25,1.498,0.791c0,0.333-0.166,0.791-0.333,1.207
		l-8.2,20.438c-0.457,1.165-1.248,2.789-1.248,4.037C50.629,63.733,51.253,64.649,52.585,64.649 M42.637,64.649
		c1.373,0,3.288-1.457,6.16-5.37l-0.249-0.166c-2.831,3.746-4.205,4.62-4.704,4.62c-0.375,0-0.708-0.166-0.708-0.749
		c0-0.749,0.874-2.706,1.374-3.913l9.948-24.766l-0.208-0.083c-1.207,1.748-3.954,1.748-6.077,1.748h-0.624v0.291h1.415
		c1.207,0,1.498,0.25,1.498,0.791c0,0.333-0.166,0.791-0.333,1.207l-8.2,20.438c-0.458,1.165-1.248,2.789-1.248,4.037
		C40.681,63.733,41.305,64.649,42.637,64.649 M32.939,56.074H20.868l12.237-16.316L32.939,56.074z M37.767,64.316v-0.333h-0.125
		c-1.54,0-2.164-0.666-2.164-2.373l0.291-25.64c-0.541,0-0.832,0.083-1.332,0.083c-0.499,0-0.832-0.083-1.457-0.083l0.083,3.247
		L18.162,59.03c-2.498,3.371-4.204,4.953-5.994,4.953h-0.291v0.333h0.791c0.624,0,2.247-0.125,2.872-0.125
		c0.874,0,2.081,0.125,2.955,0.125h0.999v-0.333h-0.458c-1.332,0-1.998-0.583-1.998-1.79c0.042-0.749,0.583-1.79,1.457-2.955
		l2.081-2.789h12.363l-0.084,5.12c-0.041,1.498-1.04,2.372-2.372,2.414h-0.458v0.333h0.832c0.541,0,1.832-0.125,3.039-0.125
		c1.082,0,2.04,0.125,2.622,0.125H37.767z"/>
	<path fill="#FFFFFF" d="M185.101,11.321c0,3.747-4.62,7.493-10.198,8.076c1.54-4.829,4.912-9.741,8.616-9.741
		C184.56,9.656,185.101,10.239,185.101,11.321 M175.236,30.427c2.955,0,6.077-3.08,8.741-6.743l-0.208-0.167
		c-3.164,4.121-5.37,5.328-7.076,5.328c-1.582,0-2.664-1.373-2.664-4.37c0-1.416,0.291-3.08,0.791-4.745
		c4.911-0.458,12.654-4.163,12.654-7.618c0-1.665-1.749-2.747-4.038-2.747c-6.036,0-12.279,8.824-12.279,15.817
		C171.157,28.221,172.822,30.427,175.236,30.427 M162,30.427c1.373,0,3.288-1.457,6.16-5.37l-0.25-0.166
		c-2.788,3.705-4.204,4.62-4.703,4.62c-0.375,0-0.708-0.166-0.708-0.749c0-0.749,0.874-2.706,1.457-3.871l4.537-9.282
		c0.666-1.374,1.415-3.122,1.415-4.329c0-0.916-0.582-1.915-1.873-1.915c-2.039,0-3.496,1.832-7.034,6.66l-9.366,12.82l5.703-13.486
		c0.499-1.166,1.249-2.914,1.249-4.079c0-0.999-0.625-1.915-1.957-1.915c-1.373,0-3.33,1.415-6.202,5.37l0.25,0.166
		c2.789-3.746,4.204-4.62,4.787-4.62c0.374,0,0.666,0.25,0.666,0.749c0,0.749-0.916,2.664-1.415,3.871l-6.327,15.193
		c0.416,0,0.957-0.083,1.373-0.083c0.417,0,0.958,0.083,1.374,0.083l10.115-13.861c3.621-4.953,4.703-5.952,5.411-5.952
		c0.458,0,0.791,0.291,0.791,0.916c0,0.749-0.708,2.289-1.665,4.245l-4.413,9.033c-0.541,1.124-1.332,2.789-1.332,4.037
		C160.043,29.511,160.668,30.427,162,30.427 M146.266,15.359c0.542-1.124,1.332-2.83,1.332-4.079c0-0.999-0.624-1.915-1.956-1.915
		c-1.374,0-3.288,1.457-6.16,5.37l0.249,0.166c2.831-3.746,4.204-4.62,4.704-4.62c0.375,0,0.708,0.166,0.708,0.749
		c0,0.749-0.833,2.706-1.416,3.871l-4.62,9.532c-0.541,1.124-1.332,2.831-1.332,4.079c0,0.999,0.624,1.915,1.956,1.915
		c1.374,0,3.289-1.457,6.161-5.37l-0.25-0.166c-2.83,3.746-4.204,4.62-4.703,4.62c-0.375,0-0.708-0.166-0.708-0.749
		c0-0.749,0.832-2.706,1.415-3.871L146.266,15.359z M148.93,5.286c1.083,0,1.957-0.791,1.957-1.915s-0.874-1.956-1.957-1.956
		c-1.082,0-1.914,0.832-1.914,1.956S147.848,5.286,148.93,5.286 M124.58,30.094l6.535-11.447c2.373-4.162,4.746-5.952,6.993-6.66
		c0.75-0.249,1.749-0.624,1.749-1.498c0-0.583-0.417-1.124-1.166-1.124c-1.998,0-5.869,5.578-7.825,9.074l-5.578,9.907l4.995-12.987
		c0.458-1.166,1.124-2.914,1.124-4.079c0-0.999-0.625-1.915-1.957-1.915c-1.373,0-3.33,1.415-6.202,5.37l0.25,0.166
		c2.831-3.788,4.204-4.62,4.787-4.62c0.375,0,0.666,0.25,0.666,0.749c0,0.749-0.833,2.664-1.29,3.871l-5.828,15.193
		c0.416,0,0.958-0.083,1.374-0.083C123.623,30.011,124.164,30.094,124.58,30.094 M119.378,11.321c0,3.747-4.621,7.493-10.198,8.076
		c1.54-4.829,4.911-9.741,8.616-9.741C118.836,9.656,119.378,10.239,119.378,11.321 M109.513,30.427c2.955,0,6.077-3.08,8.741-6.743
		l-0.208-0.167c-3.164,4.121-5.37,5.328-7.077,5.328c-1.581,0-2.664-1.373-2.664-4.37c0-1.416,0.292-3.08,0.791-4.745
		c4.912-0.458,12.654-4.163,12.654-7.618c0-1.665-1.748-2.747-4.037-2.747c-6.036,0-12.28,8.824-12.28,15.817
		C105.433,28.221,107.098,30.427,109.513,30.427 M96.277,30.427c1.373,0,3.288-1.457,6.16-5.37l-0.25-0.166
		c-2.789,3.705-4.204,4.62-4.703,4.62c-0.375,0-0.708-0.166-0.708-0.749c0-0.749,0.874-2.706,1.457-3.871l4.537-9.282
		c0.666-1.374,1.415-3.122,1.415-4.329c0-0.916-0.583-1.915-1.873-1.915c-2.039,0-3.496,1.832-7.034,6.66l-9.366,12.862
		L97.484,0.083L97.276,0c-1.208,1.748-3.913,1.748-6.078,1.748h-0.624v0.291h1.415c1.207,0,1.499,0.25,1.499,0.791
		c0,0.333-0.167,0.791-0.333,1.207L82.707,30.094c0.416,0,0.957-0.083,1.374-0.083c0.416,0,0.915,0.083,1.332,0.083l10.114-13.861
		c3.622-4.953,4.704-5.952,5.412-5.952c0.457,0,0.79,0.291,0.79,0.916c0,0.749-0.707,2.289-1.665,4.245l-4.412,9.033
		c-0.541,1.124-1.332,2.789-1.332,4.037C94.32,29.511,94.945,30.427,96.277,30.427 M74.882,30.427c1.373,0,3.288-1.457,6.16-5.37
		l-0.25-0.166c-2.83,3.746-4.204,4.62-4.703,4.62c-0.375,0-0.708-0.166-0.708-0.749c0-0.749,0.874-2.747,1.374-3.954l5.869-14.777
		h4.579V9.698h-4.454l2.331-5.744l-0.208-0.083c-0.625,1.373-1.873,2.705-3.788,3.163l-1.041,2.664h-2.997v0.333h2.872
		l-5.702,14.236c-0.5,1.207-1.291,2.997-1.291,4.245C72.925,29.511,73.55,30.427,74.882,30.427 M55.818,29.511
		c-0.666,0-0.916-0.624-0.916-1.54c0-4.037,5.037-18.19,9.574-18.19c1.415,0,2.997,1.624,3.788,2.997l-8.034,12.03
		C58.607,27.264,56.734,29.511,55.818,29.511 M64.601,30.427c1.373,0,3.288-1.457,6.16-5.37l-0.25-0.166
		c-2.789,3.705-4.204,4.62-4.703,4.62c-0.375,0-0.708-0.166-0.708-0.749c0-0.749,0.874-2.664,1.332-3.871l5.952-15.443l-0.249-0.083
		c-0.833,1.623-1.499,2.373-3.622,3.164c-0.915-1.416-2.414-3.164-4.537-3.164c-6.16,0-11.946,13.694-11.946,18.315
		c0,2.081,1.332,2.747,2.498,2.747c1.914,0,3.621-1.915,5.952-5.411l7.451-11.197l-4.038,10.614
		c-0.416,1.166-1.249,2.831-1.249,4.079C62.644,29.511,63.269,30.427,64.601,30.427 M48.825,30.094v-0.333H48.45
		c-1.415,0-2.164-0.416-2.455-1.915l-2.831-14.735l8.575-7.201c1.748-1.457,4.787-3.788,6.66-3.829h0.457V1.748h-1.207
		c-0.624,0-1.581,0.125-2.58,0.125c-0.666,0-1.998-0.125-2.664-0.125h-1.124v0.333h0.416c0.916,0,1.415,0.541,1.415,1.207
		c-0.041,0.832-0.541,1.415-1.623,2.331l-8.616,7.243c-0.333,0.041-0.791,0.083-1.124,0.083c-0.375,0-0.791-0.083-1.249-0.083
		l0.333,1.748l-6.868,5.744L40.126,4.37c0.707-1.79,1.456-2.289,3.038-2.289h0.458V1.748h-1.166c-0.874,0-1.581,0.125-2.747,0.125
		c-1.207,0-1.873-0.125-2.747-0.125h-1.415v0.333h0.791c1.082,0,1.332,0.499,1.332,0.999c0,0.291-0.042,0.666-0.292,1.249
		l-8.907,23.143c-0.708,1.79-1.457,2.289-3.039,2.289h-0.458v0.333h1.166c0.874,0,1.581-0.125,2.747-0.125
		c1.207,0,1.873,0.125,2.747,0.125h1.415v-0.333h-0.79c-1.083,0-1.332-0.499-1.332-0.999c0-0.291,0.041-0.666,0.291-1.249
		l2.497-6.493l7.201-5.994l2.29,12.196c0.083,0.541,0.083,0.874,0.083,1.124c0,0.999-0.749,1.415-2.248,1.415h-0.416v0.333h1.415
		c0.5,0,1.457-0.125,2.581-0.125c1.165,0,1.956,0.125,2.497,0.125H48.825z"/>
</g>
</svg>
