<?xml version="1.0" encoding="utf-8"?>
<!-- Generator: Adobe Illustrator 18.1.1, SVG Export Plug-In . SVG Version: 6.00 Build 0)  -->
<svg version="1.2" baseProfile="tiny" id="Layer_1" xmlns="http://www.w3.org/2000/svg" xmlns:xlink="http://www.w3.org/1999/xlink"
	 x="0px" y="0px" viewBox="0 0 187.47 134.085" xml:space="preserve">
<g>
	<path fill="#FFFFFF" d="M176.157,133.715c-2.468,0-4.443-1.44-4.443-10.038c0-8.598,1.975-10.038,4.443-10.038
		c2.88,0,4.978,1.605,6.253,2.757v14.563C181.135,132.111,179.037,133.715,176.157,133.715 M176.157,134.085
		c2.921,0,5.06-1.604,6.253-2.633v2.304c0.329,0,0.699-0.082,1.358-0.082c1.357,0,2.015,0.082,3.044,0.082h0.576v-0.288h-0.041
		c-1.893,0-2.222-0.288-2.222-2.057v-27.439h-0.247c-0.329,0.946-2.715,1.769-4.484,1.769h-0.247v0.288h0.042
		c1.892,0,2.221,0.247,2.221,2.016v7.857c-1.234-1.07-3.332-2.633-6.253-2.633c-3.373,0-7.57,2.551-7.57,10.408
		C168.587,131.535,172.784,134.085,176.157,134.085 M162.129,133.756v-0.288h-0.576c-1.892,0-2.674-0.288-2.674-2.057v-12.876
		c1.111-1.687,2.427-3.456,3.62-3.456c0.905,0,1.811,0.37,2.592,0.37c1.07,0,1.605-0.411,1.605-1.11c0-0.658-0.618-1.07-1.646-1.07
		c-1.399,0-2.386,0.576-3.127,1.193c-0.987,0.823-1.974,1.893-3.044,3.538v-4.731h-0.247c-0.329,0.946-2.715,1.769-4.484,1.769
		h-0.247v0.288h0.042c1.892,0,2.221,0.247,2.221,2.016v14.069c0,1.769-0.329,2.057-2.221,2.057h-0.042v0.288h0.576
		c1.029,0,1.687-0.123,3.045-0.123c1.604,0,2.386,0.123,3.661,0.123H162.129z M141.725,133.756c-3.374,0-5.678-1.769-5.678-10.079
		s2.304-10.079,5.678-10.079c3.373,0,5.677,1.769,5.677,10.079S145.098,133.756,141.725,133.756 M141.725,134.085
		c4.854,0,8.803-4.525,8.803-10.408s-3.949-10.408-8.803-10.408c-4.855,0-8.804,4.525-8.804,10.408S136.87,134.085,141.725,134.085
		 M126.051,125.693v-11.395h-0.288c-0.329,3.291-0.699,5.471-4.032,5.471h-5.389v-13.617h7.529c1.645,0,2.756,0.329,3.949,1.605
		c1.152,1.234,2.509,3.085,4.649,6.088l0.246-0.123l-3.784-9.298l-0.247,0.083c0.082,0.781-0.247,1.234-1.358,1.234h-9.503
		c-0.946,0-1.604,0.041-2.879,0.041c-1.276,0-1.934-0.041-2.88-0.041h-0.658v0.329h0.041c1.728,0,2.098,0.247,2.098,2.016v23.325
		c0,1.769-0.37,2.016-2.098,2.016h-0.041v0.329h0.658c1.028,0,1.728-0.123,3.085-0.123c1.605,0,2.386,0.123,3.662,0.123h1.234
		v-0.329h-0.823c-2.098,0-2.88-0.411-2.88-2.057v-11.19h5.389c3.333,0,3.703,2.263,4.032,5.513H126.051z"/>
	<path fill="#FFFFFF" d="M185.125,96.106v-27.44h-0.247c-0.329,0.947-2.715,1.769-4.484,1.769h-0.247v0.288h0.041
		c1.893,0,2.222,0.247,2.222,2.016v23.367c0,1.769-0.329,2.057-2.222,2.057h-0.041v0.288h0.576c1.029,0,1.687-0.124,3.045-0.124
		c1.357,0,2.015,0.124,3.044,0.124h0.576v-0.288h-0.041C185.454,98.163,185.125,97.875,185.125,96.106 M174.059,85.081H163.98
		c0.411-3.785,2.221-6.788,5.43-6.788C171.714,78.293,173.977,79.733,174.059,85.081 M169.41,98.78c3.538,0,6.13-2.016,7.405-6.006
		l-0.247-0.083c-1.234,3.703-3.496,5.184-6.129,5.184c-4.073,0-6.541-4.772-6.541-10.573c0-0.658,0-1.234,0.041-1.851h12.917
		c0.206-4.854-3.702-7.487-7.24-7.487c-4.525,0-8.845,3.908-8.845,10.778C160.771,94.954,165.05,98.78,169.41,98.78 M146.414,98.327
		c-2.057,0-2.757-2.139-2.757-4.854c0-2.88,0.453-5.266,3.703-6.623l5.183-2.139v10.202v0.74
		C150.857,97.093,148.306,98.327,146.414,98.327 M155.053,98.78c1.81,0,2.838-1.234,3.291-2.098l-0.206-0.123
		c-0.452,0.781-1.193,1.481-1.892,1.481c-0.658,0-0.987-0.453-0.987-1.44V81.707c0-2.221-1.111-3.743-4.773-3.743
		c-4.813,0-9.132,2.55-9.132,4.114c0,0.658,0.576,1.069,1.069,1.069c0.494,0,0.823-0.247,1.193-0.699
		c1.852-2.263,3.785-4.155,6.829-4.155c1.769,0,2.098,0.823,2.098,2.839v3.208l-5.306,2.14c-3.58,1.439-6.706,3.496-6.706,7.075
		c0,3.209,2.098,5.225,5.512,5.225c2.345,0,4.896-1.358,6.5-2.715C152.543,97.505,153.284,98.78,155.053,98.78 M134.854,80.844
		c0-2.14-0.987-2.88-2.55-2.88c-1.399,0-3.127,0.617-5.225,1.44l-4.361,1.686V68.666h-0.246c-0.33,0.947-2.716,1.769-4.485,1.769
		h-0.246v0.288h0.041c1.892,0,2.221,0.247,2.221,2.016v23.367c0,1.769-0.329,2.057-2.221,2.057h-0.041v0.288h0.576
		c1.028,0,1.686-0.124,3.044-0.124c1.357,0,2.016,0.124,3.044,0.124h0.576v-0.288h-0.041c-1.892,0-2.222-0.288-2.222-2.057V81.461
		l4.485-1.728c1.234-0.453,2.55-0.988,3.496-0.988c0.988,0,1.44,0.618,1.44,1.975v15.386c0,1.769-0.329,2.057-2.221,2.057h-0.041
		v0.288h0.575c1.029,0,1.687-0.124,3.045-0.124c1.357,0,2.016,0.124,3.044,0.124h0.576v-0.288h-0.041
		c-1.893,0-2.222-0.288-2.222-2.057V80.844z M107.251,98.78c3.538,0,6.13-2.016,7.405-6.006l-0.247-0.083
		c-1.275,3.785-3.538,5.184-6.13,5.184c-3.538,0-6.541-3.785-6.541-10.778c0-5.06,1.893-8.804,5.677-8.804
		c2.51,0,3.991,1.358,4.526,3.949c0.123,0.576,0.205,1.111,0.329,1.44c0.206,0.617,0.658,0.823,1.111,0.823
		c0.658,0,1.11-0.494,1.11-1.152c0-2.263-3.044-5.389-7.034-5.389c-4.526,0-8.845,3.908-8.845,10.737
		C98.612,94.913,102.89,98.78,107.251,98.78 M91.824,74.097c1.111,0,2.016-0.823,2.016-1.975s-0.905-2.016-2.016-2.016
		c-1.111,0-1.975,0.864-1.975,2.016S90.713,74.097,91.824,74.097 M95.444,98.451v-0.288h-0.041c-1.892,0-2.221-0.288-2.221-2.057
		V77.964h-0.247c-0.329,0.946-2.715,1.769-4.484,1.769h-0.247v0.288h0.041c1.892,0,2.221,0.247,2.221,2.016v14.069
		c0,1.769-0.329,2.057-2.221,2.057h-0.041v0.288h0.576c1.028,0,1.686-0.124,3.044-0.124s2.016,0.124,3.044,0.124H95.444z
		 M82.486,96.106V72.78c0-1.769,0.37-2.015,2.098-2.015h0.041v-0.33h-0.658c-0.987,0-1.481,0.083-2.016,0.083
		c-1.152,0-1.851-0.083-2.262-0.083L69.116,94.748L57.803,70.435c-0.823,0-1.646,0.042-2.51,0.042c-0.822,0-1.234-0.042-2.18-0.042
		h-0.411v0.33h0.164c1.275,0,2.016,0.575,2.715,1.974v20.323c0,2.591-0.493,5.06-3.579,5.06h-0.041v0.329h0.987
		c0.576,0,1.605-0.124,2.88-0.124c1.234,0,2.263,0.124,2.839,0.124h1.028v-0.329h-0.041c-3.126-0.041-3.661-2.469-3.661-5.06v-19.87
		l11.765,25.259c0.741,0,0.947-0.041,1.522-0.041c0.494,0,0.782,0.041,1.564,0.041l-1.481-3.168l10.326-23.737v24.56
		c0,1.769-0.371,2.016-2.098,2.016h-0.042v0.329h0.659c0.946,0,1.604-0.124,2.879-0.124c1.276,0,1.934,0.124,2.88,0.124h0.658
		v-0.329h-0.041C82.856,98.122,82.486,97.875,82.486,96.106"/>
	<path fill="#FFFFFF" d="M187.47,64.145v-0.288h-0.041c-1.893,0-2.222-0.288-2.222-2.057V46.538c0-2.14-0.987-2.88-2.55-2.88
		c-1.399,0-3.127,0.617-5.225,1.44l-4.361,1.686v-3.126h-0.246c-0.33,0.946-2.716,1.769-4.485,1.769h-0.246v0.288h0.041
		c1.892,0,2.221,0.247,2.221,2.016V61.8c0,1.769-0.329,2.057-2.221,2.057h-0.041v0.288h0.576c1.028,0,1.686-0.124,3.044-0.124
		c1.357,0,2.016,0.124,3.044,0.124h0.576v-0.288h-0.041c-1.893,0-2.222-0.288-2.222-2.057V47.155l4.484-1.728
		c1.235-0.453,2.551-0.988,3.497-0.988c0.988,0,1.44,0.618,1.44,1.975V61.8c0,1.769-0.329,2.057-2.221,2.057h-0.041v0.288h0.575
		c1.029,0,1.687-0.124,3.045-0.124c1.357,0,2.015,0.124,3.044,0.124H187.47z M161.265,39.791c1.11,0,2.015-0.823,2.015-1.975
		s-0.905-2.016-2.015-2.016c-1.111,0-1.975,0.864-1.975,2.016S160.154,39.791,161.265,39.791 M164.885,64.145v-0.288h-0.041
		c-1.893,0-2.222-0.288-2.222-2.057V43.658h-0.247c-0.329,0.946-2.715,1.769-4.484,1.769h-0.247v0.288h0.042
		c1.892,0,2.221,0.247,2.221,2.016V61.8c0,1.769-0.329,2.057-2.221,2.057h-0.042v0.288h0.576c1.029,0,1.687-0.124,3.045-0.124
		c1.357,0,2.015,0.124,3.044,0.124H164.885z M152.174,61.8V34.36h-0.247c-0.329,0.947-2.715,1.769-4.484,1.769h-0.247v0.288h0.041
		c1.892,0,2.221,0.247,2.221,2.016V61.8c0,1.769-0.329,2.057-2.221,2.057h-0.041v0.288h0.576c1.028,0,1.686-0.124,3.044-0.124
		s2.016,0.124,3.044,0.124h0.576v-0.288h-0.041C152.503,63.857,152.174,63.569,152.174,61.8 M135.225,64.145
		c-3.374,0-5.677-1.769-5.677-10.079s2.303-10.079,5.677-10.079c3.373,0,5.677,1.769,5.677,10.079S138.598,64.145,135.225,64.145
		 M135.225,64.474c4.854,0,8.803-4.525,8.803-10.408c0-5.883-3.949-10.408-8.803-10.408c-4.855,0-8.804,4.525-8.804,10.408
		C126.421,59.949,130.37,64.474,135.225,64.474 M112.352,64.474c4.896,0,8.968-3.497,10.943-7.611l-0.288-0.123
		c-2.016,3.785-4.772,5.759-8.763,5.759c-6.17,0-11.107-5.924-11.107-15.098c0-7.075,4.649-11.313,9.462-11.313
		c3.455,0,6.623,2.057,10.49,8.434l0.247-0.124l-3.785-9.338l-0.247,0.082c0.042,0.699-0.205,1.358-1.357,1.358
		c-1.111,0-2.839-0.782-5.348-0.782c-4.731,0-11.889,4.361-11.889,14.316C100.71,58.303,105.482,64.474,112.352,64.474"/>
</g>
</svg>
