<?xml version="1.0" encoding="utf-8"?>
<svg version="1.1" x="0px" y="0px" width="612px" height="792px" viewBox="0 0 612 792">
<path fill="#ABDBCE" d="M424.8,727.8c0-3.5-1.3-5-4.8-5h-27.7c-3.5,0-4.8,1.5-4.8,5v27.1c0,3.5,1.3,5,4.8,5H420c3.5,0,4.8-1.5,4.8-5
	V727.8z M424.8,613.2c0-3.5-1.3-5-4.8-5h-27.7c-3.5,0-4.8,1.5-4.8,5v89.3c0,3.5,1.3,5,4.8,5H420c3.5,0,4.8-1.5,4.8-5V613.2z
	 M278.5,713.3c0,31.9,16,48.8,45.9,48.8c27.7,0,47.2-16.9,47.2-49.2c0-29.7-17.6-44.9-44-47.5c-8.7-0.9-12.6-3.5-12.6-10
	c0-5.2,3.9-8.7,9.1-8.7c5.2,0,9.1,3.3,9.1,9.8c0,3.5,1.3,5,4.8,5h26.4c3.3,0,5.4-1.1,5.4-6.9c0-30.6-18.2-48.5-45.9-48.5
	c-27.7,0-45.5,16.9-45.5,49.2c0,31.9,16,44.4,45.7,47.9c5.4,0.7,9.1,3.3,9.1,9.8c0,5.2-3.9,8.7-9.1,8.7c-5.2,0-8.9-2.8-8.9-10.4
	c0-3.5-1.3-5-4.8-5h-26.4C280.9,706.2,278.5,707,278.5,713.3 M218.7,762.1c28.4,0,44.6-14.1,44.6-58.5v-90.4c0-3.5-1.3-5-4.8-5
	h-27.7c-3.7,0-4.8,1.5-4.8,5V701c0,14.5-2.8,17.6-7.4,17.6c-4.6,0-7.4-3-7.4-17.6v-87.8c0-3.5-1.3-5-4.8-5h-27.7
	c-3.5,0-4.8,1.5-4.8,5v90.4C174,748,190.3,762.1,218.7,762.1"/>
<path fill="#ECBD3A" d="M459.8,562.9c0,3.5,1.3,5,4.8,5h28.6c3.5,0,4.8-1.5,4.8-5V421.1c0-3.5-1.3-5-4.8-5h-28.6
	c-3.5,0-4.8,1.5-4.8,5v44.2c0,3.5-1.3,5-4.8,5h-4.1c-3.5,0-4.8-1.5-4.8-5v-44.2c0-3.5-1.3-5-4.8-5h-28.6c-3.5,0-4.8,1.5-4.8,5v141.7
	c0,3.5,1.3,5,4.8,5h28.6c3.5,0,4.8-1.5,4.8-5v-45.3c0-3.5,1.3-5,4.8-5h4.1c3.5,0,4.8,1.5,4.8,5V562.9z M332.5,563.1
	c0,3.5,1.3,4.8,4.8,4.8h27.7c3.5,0,4.8-1.3,4.8-4.8v-99.9c0-3.5,1.3-4.8,4.8-4.8H388c3.5,0,4.8-1.3,4.8-4.8v-32.7
	c0-3.5-1.3-4.8-4.8-4.8h-73.7c-3.5,0-4.8,1.3-4.8,4.8v32.7c0,3.5,1.3,4.8,4.8,4.8h13.4c3.5,0,4.8,1.3,4.8,4.8V563.1z M294.4,421.1
	c0-3.5-1.3-5-4.8-5h-31.2c-3.5,0-4.8,1.5-4.8,5v141.7c0,3.5,1.3,5,4.8,5h31.2c3.5,0,4.8-1.5,4.8-5V421.1z M164.6,512.8
	c0.4-2.8,1.5-4.1,3-4.1s2.6,1.3,3,4.1l9.5,50.7c0.7,3,2.4,4.3,5.4,4.3h22.3c2.8,0,4.8-1.1,5.4-4.6l26.9-141.1c0.7-3.5,0-6.1-3.9-6.1
	h-25.6c-5,0-6.9,0.4-7.8,5.9l-8.5,49.2c-0.4,3-1.3,4.1-2.8,4.1c-1.5,0-2.4-1.1-2.8-4.1l-8.7-49.2c-0.9-4.6-2.6-5.9-6.5-5.9h-12.1
	c-3.9,0-5.6,1.3-6.5,5.9l-8.7,49.2c-0.4,3-1.3,4.1-2.8,4.1c-1.5,0-2.4-1.1-2.8-4.1l-8.5-49.2c-0.9-5.4-2.6-5.9-7.6-5.9H98.9
	c-4.3,0-4.6,3-3.9,6.1l26.9,141.1c0.7,3.5,2.6,4.6,5.4,4.6h22.3c3,0,4.8-1.3,5.4-4.3L164.6,512.8z"/>
<path fill="#EA5A89" d="M484.6,323.6c1.7,5,2.2,6.9,2.2,11.7v35.5c0,3.5,1.3,5,4.8,5h27.7c3.5,0,4.8-1.5,4.8-5v-35.5
	c0-4.8,0.4-6.7,2.2-11.7l33.2-93.4c0.2-0.7,0.4-1.5,0.4-2.4c0-2-1.1-3.7-3.7-3.7h-26.7c-5,0-7.6,0.7-9.3,5.9l-11.9,36
	c-0.9,2.8-1.3,4.1-2.8,4.1c-1.5,0-2-1.3-2.8-4.1l-11.9-36c-1.7-5.2-4.3-5.9-9.3-5.9h-26.7c-2.6,0-3.7,1.7-3.7,3.7
	c0,0.9,0.2,1.7,0.4,2.4L484.6,323.6z M384.7,371.1c0,3.5,1.3,4.8,4.8,4.8h27.7c3.5,0,4.8-1.3,4.8-4.8v-99.9c0-3.5,1.3-4.8,4.8-4.8
	h13.4c3.5,0,4.8-1.3,4.8-4.8v-32.7c0-3.5-1.3-4.8-4.8-4.8h-73.7c-3.5,0-4.8,1.3-4.8,4.8v32.7c0,3.5,1.3,4.8,4.8,4.8h13.4
	c3.5,0,4.8,1.3,4.8,4.8V371.1z M300.4,283.7c-3.5,0-4.8-1.5-4.8-5v-10.4c0-3.5,1.3-5,4.8-5h1.1c5.6,0,10,3.7,10,10.2
	c0,6.7-4.3,10.2-10,10.2H300.4z M338.1,307.6c-0.4-1.7-0.2-3,0.9-4.6c4.8-7.4,9.5-16.3,9.5-31.4c0-32.1-19.9-47.5-52.2-47.5h-31
	c-3.5,0-4.8,1.3-4.8,4.8v142.2c0,3.5,1.3,4.8,4.8,4.8h28c3.5,0,4.8-1.3,4.8-4.8v-48.5c0-2.4,1.5-3.3,2.8-3.3c1.3,0,2.6,1.3,3,3.3
	l12.4,46.6c1.3,5.4,2.6,6.7,8,6.7h27.5c4.6,0,4.8-3.5,3.9-6.5L338.1,307.6z M179.4,356.8c0.9-3.9,2.6-4.8,6.1-4.8h13
	c3.5,0,5,0.9,6.1,4.8l3.3,13.2c1.3,5.2,3,5.9,8.9,5.9h26.9c2.8,0,3.9-1.3,3.9-3.5c0-0.9-0.2-1.5-0.4-2.6l-35.8-140.7
	c-1.1-3.9-2.8-5-6.3-5h-25.8c-3.5,0-5.2,1.1-6.3,5l-35.8,140.7c-0.2,1.1-0.4,1.7-0.4,2.6c0,2.2,1.1,3.5,3.9,3.5h26.7
	c5.9,0,7.6-0.7,8.9-5.9L179.4,356.8z M189,295.2c0.7-2.8,1.3-4.6,3-4.6s2.6,1.7,3.3,4.6l3.9,17.1c0.4,1.7,0.7,3.3,0.7,4.1
	c0,1.5-1.3,2.4-3.7,2.4h-8c-2.4,0-3.9-0.7-3.9-2.4c0-0.9,0.2-2.4,0.7-4.1L189,295.2z M93,283.7c-3.5,0-4.8-1.5-4.8-5v-10.4
	c0-3.5,1.3-5,4.8-5H94c5.6,0,10,3.7,10,10.2c0,6.7-4.3,10.2-10,10.2H93z M95.1,323c29.9,0,45.9-17.6,45.9-49.8
	c0-32.7-20.6-49-52.9-49H57c-3.5,0-4.8,1.5-4.8,5v141.7c0,3.5,1.3,5,4.8,5h28.6c3.5,0,4.8-1.5,4.8-5v-42.9
	C90.4,324.5,91.7,323,95.1,323"/>
<path fill="#30C0CE" d="M484.7,140.5c-3.5,0-4.8-1.3-4.8-4.8V132c0-3.5,1.3-4.8,4.8-4.8h13.4c3.5,0,4.8-1.5,4.8-5V93.6
	c0-3.5-1.3-5-4.8-5h-13.4c-3.5,0-4.8-1.3-4.8-4.8v-3.7c0-3.5,1.3-4.8,4.8-4.8h17.8c3.5,0,4.8-1.5,4.8-5V37.1c0-3.5-1.3-5-4.8-5h-55
	c-3.5,0-4.8,1.5-4.8,5v141.7c0,3.5,1.3,5,4.8,5h55c3.5,0,4.8-1.5,4.8-5v-33.4c0-3.5-1.3-5-4.8-5H484.7z M363.1,140.9
	c1.5,0,2.6-0.7,3.5-2.2l12.4-20.8c1.1-1.7,1.7-2,2.6-2c1.3,0,2.2,1.3,2.2,3v59.8c0,3.5,1.3,5,4.8,5h27.7c3.5,0,4.8-1.5,4.8-5V37.1
	c0-3.5-1.3-5-4.8-5h-17.6c-5,0-6.5,1.3-9.3,5.9l-23,36.8c-1.1,1.7-2,3-3.5,3c-1.5,0-2.4-1.3-3.5-3l-23-36.8
	c-2.8-4.6-4.3-5.9-9.3-5.9h-17.6c-3.5,0-4.8,1.5-4.8,5v141.7c0,3.5,1.3,5,4.8,5h27.7c3.5,0,4.8-1.5,4.8-5V119c0-1.7,0.9-3,2.2-3
	c0.9,0,1.7,0.4,2.6,2l12.4,20.8C360.1,140.2,361.4,140.9,363.1,140.9 M240.9,142.4c-5.9,0-8.2-4.8-8.2-34.5s2.4-34.5,8.2-34.5
	c5.9,0,8.2,4.8,8.2,34.5S246.7,142.4,240.9,142.4 M240.9,29.9c-31.9,0-46.6,18.4-46.6,78s14.7,78,46.6,78s46.6-18.4,46.6-78
	S272.7,29.9,240.9,29.9 M145.1,130.5c0,10-2.6,13.2-6.5,13.2c-3.5,0-5.6-2.8-6.7-8c-1.1-5.4-2-13.9-2-27.7s0.9-22.3,2-27.7
	c1.1-5.2,3.3-8,6.7-8c3.9,0,6.5,3.3,6.5,13.2v5.4c0,3.5,1.3,4.8,4.8,4.8h27.7c3.5,0,4.8-1.3,4.8-8.2c0-27.7-7.4-57.4-44.6-57.4
	c-31.4,0-46.6,18.4-46.6,78s15.2,78,46.6,78c37.3,0,44.6-27.5,44.6-57.4c0-6.9-1.3-8.2-4.8-8.2h-27.7c-3.5,0-4.8,1.3-4.8,4.8V130.5z
	"/>
</svg>
