<?xml version="1.0" encoding="utf-8"?>
<!-- Generator: Adobe Illustrator 18.1.1, SVG Export Plug-In . SVG Version: 6.00 Build 0)  -->
<svg version="1.1" id="Layer_1" xmlns="http://www.w3.org/2000/svg" xmlns:xlink="http://www.w3.org/1999/xlink" x="0px" y="0px"
	 width="638.1px" height="82.1px" viewBox="0 0 638.1 82.1" enable-background="new 0 0 638.1 82.1" xml:space="preserve">
<path d="M618.4,48.6c1.5,0,2-0.6,2-2.1V35.8c0-1.5-0.6-2.1-2-2.1h-20.1c-1.5,0-2-0.6-2-2.1v-3.4c0-1.5,0.6-2.1,2-2.1H623
	c1.5,0,2-0.6,2-2.1V10.7c0-1.5-0.6-2.1-2-2.1h-40.7c-1.5,0-2,0.6-2,2.1v60.6c0,1.5,0.6,2.1,2,2.1H623c1.5,0,2-0.6,2-2.1V58.3
	c0-1.5-0.6-2.1-2-2.1h-24.7c-1.5,0-2-0.6-2-2.1v-3.3c0-1.5,0.6-2.1,2-2.1H618.4z M537.3,26c1.5,0,2,0.6,2,2.1v43.2
	c0,1.5,0.6,2.1,2,2.1h12.2c1.5,0,2-0.6,2-2.1V28.2c0-1.5,0.6-2.1,2-2.1h15.3c1.5,0,2-0.6,2-2.1V10.7c0-1.5-0.6-2.1-2-2.1h-51
	c-1.5,0-2,0.6-2,2.1v13.2c0,1.5,0.6,2.1,2,2.1H537.3z M497.1,48.1c0.9,1.6,0.5,2.4-1.3,2.4h-6c-1.8,0-2.2-0.8-1.3-2.4l3.1-5.4
	c0.7-1.4,1.9-1.4,2.6,0L497.1,48.1z M502.3,64.2c2.1,0,2.9,0.5,4,2.5l2.3,4.3c1.1,2,1.9,2.5,4,2.5h12.7c1.7,0,2.2-1.1,1.5-2.6
	L494.3,9.2c-0.7-1.4-2.1-1.2-2.8,0l-32.5,61.7c-0.7,1.5-0.2,2.6,1.5,2.6H473c2.1,0,2.9-0.5,4-2.5l2.3-4.3c1.1-2,1.9-2.5,4-2.5H502.3
	z M422.2,28.1c0-1.5,0.6-2.1,2-2.1h4c9.8,0,15.8,5.8,15.8,15.1s-5.9,15.1-15.8,15.1h-4c-1.5,0-2-0.6-2-2.1V28.1z M408.3,8.6
	c-1.5,0-2,0.6-2,2.1v60.6c0,1.5,0.6,2.1,2,2.1h21.6c18.4,0,31-13.7,31-32.5s-12.6-32.3-31-32.3H408.3z M374.1,55c-1.5,0-2-0.6-2-2
	v-1.6c0-1.5,0.6-2,2-2h5.7c1.5,0,2-0.6,2-2.1V34.9c0-1.5-0.6-2.1-2-2.1h-5.7c-1.5,0-2-0.6-2-2v-1.6c0-1.5,0.6-2,2-2h7.6
	c1.5,0,2-0.6,2-2.1V10.7c0-1.5-0.6-2.1-2-2.1h-23.5c-1.5,0-2,0.6-2,2.1v60.6c0,1.5,0.6,2.1,2,2.1h23.5c1.5,0,2-0.6,2-2.1V57.1
	c0-1.5-0.6-2.1-2-2.1H374.1z M330.5,71.4c0,1.5,0.6,2.1,2,2.1h12.2c1.5,0,2-0.6,2-2.1V10.7c0-1.5-0.6-2.1-2-2.1h-12.2
	c-1.5,0-2,0.6-2,2.1v18.9c0,1.5-0.6,2.1-2,2.1h-1.8c-1.5,0-2-0.6-2-2.1V10.7c0-1.5-0.6-2.1-2-2.1h-12.2c-1.5,0-2,0.6-2,2.1v60.6
	c0,1.5,0.6,2.1,2,2.1h12.2c1.5,0,2-0.6,2-2.1V52c0-1.5,0.6-2.1,2-2.1h1.8c1.5,0,2,0.6,2,2.1V71.4z M276.1,71.5c0,1.5,0.6,2,2,2H290
	c1.5,0,2-0.6,2-2V28.7c0-1.5,0.6-2,2-2h5.7c1.5,0,2-0.6,2-2v-14c0-1.5-0.6-2-2-2h-31.5c-1.5,0-2,0.6-2,2v14c0,1.5,0.6,2,2,2h5.7
	c1.5,0,2,0.6,2,2V71.5z M238.3,48.6c1.5,0,2-0.6,2-2.1V35.8c0-1.5-0.6-2.1-2-2.1h-20.1c-1.5,0-2-0.6-2-2.1v-3.4c0-1.5,0.6-2.1,2-2.1
	h24.7c1.5,0,2-0.6,2-2.1V10.7c0-1.5-0.6-2.1-2-2.1h-40.7c-1.5,0-2,0.6-2,2.1v60.6c0,1.5,0.6,2.1,2,2.1h40.7c1.5,0,2-0.6,2-2.1V58.3
	c0-1.5-0.6-2.1-2-2.1h-24.7c-1.5,0-2-0.6-2-2.1v-3.3c0-1.5,0.6-2.1,2-2.1H238.3z M145,11.1c-1-2.1-1.5-2.5-3.6-2.5H127
	c-1.8,0-2,1.4-1.5,2.6L153.2,71c1,2.2,1.4,2.5,3.5,2.5h8.7c2.1,0,2.5-0.3,3.5-2.5l27.7-59.8c0.6-1.4,0.1-2.6-1.5-2.6h-14.1
	c-2.1,0-2.6,0.4-3.6,2.5l-14.9,32.4c-0.6,1.3-2,1.3-2.6,0L145,11.1z M106.3,48.1c0.9,1.6,0.5,2.4-1.3,2.4h-6c-1.8,0-2.2-0.8-1.3-2.4
	l3.1-5.4c0.7-1.4,1.9-1.4,2.6,0L106.3,48.1z M111.5,64.2c2.1,0,2.9,0.5,4,2.5l2.3,4.3c1.1,2,1.9,2.5,4,2.5h12.7
	c1.7,0,2.2-1.1,1.5-2.6L103.4,9.2c-0.7-1.4-2.1-1.2-2.8,0L68.1,70.9c-0.7,1.5-0.2,2.6,1.5,2.6h12.6c2.1,0,2.9-0.5,4-2.5l2.3-4.3
	c1.1-2,1.9-2.5,4-2.5H111.5z M67.4,51.6c0-13.3-11-18.9-25.3-18.9h-3.3c-6.2,0-7.8-1.7-7.8-3.9c0-2.5,3.2-4.4,9.1-4.4
	c4.9,0,10.1,1.6,14,4.7c1.3,1,2.2,1,3.2,0l8.5-9.2c1.5-1.7,0.4-2.8-0.9-3.8c-6.3-5-14.4-8.4-23.6-8.4c-15.3,0-26.9,8.3-26.9,22.5
	c0,14.5,11.7,19.2,26.1,19.2h2.7c5.7,0,7.6,1.2,7.6,3.8c0,2.6-3,4.5-8.7,4.5c-6.6,0-12.4-2.8-15.8-6.1c-1.2-1.2-1.9-1.2-3.2-0.1
	l-9.4,8.9c-1.1,1.1-0.7,2.2,0.3,3.2c6.5,6.6,15.7,10.8,27.1,10.8C55.5,74.4,67.4,66.4,67.4,51.6"/>

</svg>
