<?xml version="1.0" encoding="utf-8"?>
<!-- Generator: Adobe Illustrator 18.1.1, SVG Export Plug-In . SVG Version: 6.00 Build 0)  -->
<svg version="1.1" id="Layer_1" xmlns="http://www.w3.org/2000/svg" xmlns:xlink="http://www.w3.org/1999/xlink" x="0px" y="0px"
	 viewBox="-76 265.9 638.1 82.1" enable-background="new -76 265.9 638.1 82.1" xml:space="preserve">
<path d="M542.4,314.5c1.5,0,2-0.6,2-2.1v-10.7c0-1.5-0.6-2.1-2-2.1h-20.1c-1.5,0-2-0.6-2-2.1v-3.4c0-1.5,0.6-2.1,2-2.1H547
	c1.5,0,2-0.6,2-2.1v-13.3c0-1.5-0.6-2.1-2-2.1h-40.7c-1.5,0-2,0.6-2,2.1v60.6c0,1.5,0.6,2.1,2,2.1H547c1.5,0,2-0.6,2-2.1v-13
	c0-1.5-0.6-2.1-2-2.1h-24.7c-1.5,0-2-0.6-2-2.1v-3.3c0-1.5,0.6-2.1,2-2.1h20.1V314.5z M461.3,291.9c1.5,0,2,0.6,2,2.1v43.2
	c0,1.5,0.6,2.1,2,2.1h12.2c1.5,0,2-0.6,2-2.1v-43.1c0-1.5,0.6-2.1,2-2.1h15.3c1.5,0,2-0.6,2-2.1v-13.3c0-1.5-0.6-2.1-2-2.1h-51
	c-1.5,0-2,0.6-2,2.1v13.2c0,1.5,0.6,2.1,2,2.1C445.8,291.9,461.3,291.9,461.3,291.9z M421.1,314c0.9,1.6,0.5,2.4-1.3,2.4h-6
	c-1.8,0-2.2-0.8-1.3-2.4l3.1-5.4c0.7-1.4,1.9-1.4,2.6,0L421.1,314z M426.3,330.1c2.1,0,2.9,0.5,4,2.5l2.3,4.3c1.1,2,1.9,2.5,4,2.5
	h12.7c1.7,0,2.2-1.1,1.5-2.6l-32.5-61.7c-0.7-1.4-2.1-1.2-2.8,0L383,336.8c-0.7,1.5-0.2,2.6,1.5,2.6H397c2.1,0,2.9-0.5,4-2.5
	l2.3-4.3c1.1-2,1.9-2.5,4-2.5H426.3z M346.2,294c0-1.5,0.6-2.1,2-2.1h4c9.8,0,15.8,5.8,15.8,15.1c0,9.3-5.9,15.1-15.8,15.1h-4
	c-1.5,0-2-0.6-2-2.1V294z M332.3,274.5c-1.5,0-2,0.6-2,2.1v60.6c0,1.5,0.6,2.1,2,2.1h21.6c18.4,0,31-13.7,31-32.5
	c0-18.8-12.6-32.3-31-32.3C353.9,274.5,332.3,274.5,332.3,274.5z M298.1,320.9c-1.5,0-2-0.6-2-2v-1.6c0-1.5,0.6-2,2-2h5.7
	c1.5,0,2-0.6,2-2.1v-12.4c0-1.5-0.6-2.1-2-2.1h-5.7c-1.5,0-2-0.6-2-2v-1.6c0-1.5,0.6-2,2-2h7.6c1.5,0,2-0.6,2-2.1v-14.4
	c0-1.5-0.6-2.1-2-2.1h-23.5c-1.5,0-2,0.6-2,2.1v60.6c0,1.5,0.6,2.1,2,2.1h23.5c1.5,0,2-0.6,2-2.1V323c0-1.5-0.6-2.1-2-2.1H298.1z
	 M254.5,337.3c0,1.5,0.6,2.1,2,2.1h12.2c1.5,0,2-0.6,2-2.1v-60.7c0-1.5-0.6-2.1-2-2.1h-12.2c-1.5,0-2,0.6-2,2.1v18.9
	c0,1.5-0.6,2.1-2,2.1h-1.8c-1.5,0-2-0.6-2-2.1v-18.9c0-1.5-0.6-2.1-2-2.1h-12.2c-1.5,0-2,0.6-2,2.1v60.6c0,1.5,0.6,2.1,2,2.1h12.2
	c1.5,0,2-0.6,2-2.1v-19.3c0-1.5,0.6-2.1,2-2.1h1.8c1.5,0,2,0.6,2,2.1V337.3z M200.1,337.4c0,1.5,0.6,2,2,2H214c1.5,0,2-0.6,2-2
	v-42.8c0-1.5,0.6-2,2-2h5.7c1.5,0,2-0.6,2-2v-14c0-1.5-0.6-2-2-2h-31.5c-1.5,0-2,0.6-2,2v14c0,1.5,0.6,2,2,2h5.7c1.5,0,2,0.6,2,2
	v42.8H200.1z M162.3,314.5c1.5,0,2-0.6,2-2.1v-10.7c0-1.5-0.6-2.1-2-2.1h-20.1c-1.5,0-2-0.6-2-2.1v-3.4c0-1.5,0.6-2.1,2-2.1h24.7
	c1.5,0,2-0.6,2-2.1v-13.3c0-1.5-0.6-2.1-2-2.1h-40.7c-1.5,0-2,0.6-2,2.1v60.6c0,1.5,0.6,2.1,2,2.1h40.7c1.5,0,2-0.6,2-2.1v-13
	c0-1.5-0.6-2.1-2-2.1h-24.7c-1.5,0-2-0.6-2-2.1v-3.3c0-1.5,0.6-2.1,2-2.1h20.1V314.5z M69,277c-1-2.1-1.5-2.5-3.6-2.5H51
	c-1.8,0-2,1.4-1.5,2.6l27.7,59.8c1,2.2,1.4,2.5,3.5,2.5h8.7c2.1,0,2.5-0.3,3.5-2.5l27.7-59.8c0.6-1.4,0.1-2.6-1.5-2.6H105
	c-2.1,0-2.6,0.4-3.6,2.5l-14.9,32.4c-0.6,1.3-2,1.3-2.6,0L69,277z M32.3,314c0.9,1.6,0.5,2.4-1.3,2.4h-6c-1.8,0-2.2-0.8-1.3-2.4
	l3.1-5.4c0.7-1.4,1.9-1.4,2.6,0L32.3,314z M37.5,330.1c2.1,0,2.9,0.5,4,2.5l2.3,4.3c1.1,2,1.9,2.5,4,2.5h12.7c1.7,0,2.2-1.1,1.5-2.6
	l-32.6-61.7c-0.7-1.4-2.1-1.2-2.8,0l-32.5,61.7c-0.7,1.5-0.2,2.6,1.5,2.6H8.2c2.1,0,2.9-0.5,4-2.5l2.3-4.3c1.1-2,1.9-2.5,4-2.5H37.5
	z M-6.6,317.5c0-13.3-11-18.9-25.3-18.9h-3.3c-6.2,0-7.8-1.7-7.8-3.9c0-2.5,3.2-4.4,9.1-4.4c4.9,0,10.1,1.6,14,4.7
	c1.3,1,2.2,1,3.2,0l8.5-9.2c1.5-1.7,0.4-2.8-0.9-3.8c-6.3-5-14.4-8.4-23.6-8.4c-15.3,0-26.9,8.3-26.9,22.5
	c0,14.5,11.7,19.2,26.1,19.2h2.7c5.7,0,7.6,1.2,7.6,3.8c0,2.6-3,4.5-8.7,4.5c-6.6,0-12.4-2.8-15.8-6.1c-1.2-1.2-1.9-1.2-3.2-0.1
	l-9.4,8.9c-1.1,1.1-0.7,2.2,0.3,3.2c6.5,6.6,15.7,10.8,27.1,10.8C-18.5,340.3-6.6,332.3-6.6,317.5"/>
</svg>
