<?xml version="1.0" encoding="utf-8"?>
<!-- Generator: Adobe Illustrator 18.1.1, SVG Export Plug-In . SVG Version: 6.00 Build 0)  -->
<svg version="1.2" baseProfile="tiny" id="Layer_1" xmlns="http://www.w3.org/2000/svg" xmlns:xlink="http://www.w3.org/1999/xlink"
	 x="0px" y="0px" viewBox="0 0 315.781 129.615" xml:space="preserve">
<g>
	<path d="M256.619,34.786c0,0.806-0.653,1.46-1.46,1.46c-0.806,0-1.459-0.654-1.459-1.46c0-0.806,0.653-1.46,1.459-1.46
		C255.966,33.326,256.619,33.98,256.619,34.786"/>
	<path d="M12.729,67.83c0,0.947-0.768,1.715-1.715,1.715s-1.715-0.768-1.715-1.715c0-0.947,0.768-1.715,1.715-1.715
		S12.729,66.883,12.729,67.83"/>
	<path d="M3.203,58.974c0,0.884-0.717,1.601-1.601,1.601C0.717,60.575,0,59.858,0,58.974c0-0.884,0.717-1.601,1.602-1.601
		C2.486,57.373,3.203,58.09,3.203,58.974"/>
	<path d="M255.159,13.843c0,0.85-0.689,1.538-1.538,1.538c-0.85,0-1.539-0.688-1.539-1.538c0-0.85,0.689-1.538,1.539-1.538
		C254.47,12.305,255.159,12.993,255.159,13.843"/>
	<path d="M26.094,76.29c0,0.835-0.677,1.511-1.511,1.511c-0.835,0-1.511-0.676-1.511-1.511c0-0.834,0.676-1.511,1.511-1.511
		C25.417,74.779,26.094,75.456,26.094,76.29"/>
	<path d="M36.416,122.603c0,0.912-0.74,1.652-1.652,1.652c-0.912,0-1.652-0.74-1.652-1.652c0-0.912,0.74-1.652,1.652-1.652
		C35.676,120.951,36.416,121.691,36.416,122.603"/>
	<path d="M118.104,4.565c0,0.928-0.752,1.68-1.68,1.68s-1.68-0.752-1.68-1.68c0-0.928,0.752-1.68,1.68-1.68
		S118.104,3.637,118.104,4.565"/>
	<path d="M13.597,6.706c0,0.798-0.647,1.444-1.444,1.444c-0.798,0-1.445-0.646-1.445-1.444c0-0.798,0.647-1.444,1.445-1.444
		C12.95,5.262,13.597,5.908,13.597,6.706"/>
	<path d="M70.244,1.704c0,0.941-0.763,1.704-1.704,1.704c-0.941,0-1.703-0.763-1.703-1.704C66.837,0.763,67.599,0,68.54,0
		C69.481,0,70.244,0.763,70.244,1.704"/>
	<path d="M291.86,6.951c0,0.799-0.648,1.447-1.447,1.447c-0.799,0-1.447-0.648-1.447-1.447c0-0.799,0.648-1.447,1.447-1.447
		C291.212,5.504,291.86,6.152,291.86,6.951"/>
	<path d="M254.777,66.496c0,0.95-0.77,1.72-1.72,1.72c-0.95,0-1.72-0.77-1.72-1.72c0-0.95,0.77-1.72,1.72-1.72
		C254.007,64.776,254.777,65.546,254.777,66.496"/>
	<path d="M21.137,43.327c0,0.867-0.703,1.57-1.57,1.57c-0.867,0-1.57-0.703-1.57-1.57c0-0.867,0.703-1.57,1.57-1.57
		C20.434,41.757,21.137,42.46,21.137,43.327"/>
	<path d="M40.898,17.199c0,0.789-0.639,1.428-1.428,1.428c-0.789,0-1.428-0.639-1.428-1.428c0-0.789,0.639-1.428,1.428-1.428
		C40.258,15.771,40.898,16.41,40.898,17.199"/>
	<path d="M216.661,16.342c0,0.816-0.662,1.478-1.478,1.478c-0.816,0-1.478-0.662-1.478-1.478c0-0.816,0.662-1.478,1.478-1.478
		C215.999,14.864,216.661,15.526,216.661,16.342"/>
	<path d="M47.311,23.967c0,0.906-0.734,1.64-1.64,1.64c-0.906,0-1.641-0.734-1.641-1.64c0-0.906,0.735-1.64,1.641-1.64
		C46.577,22.327,47.311,23.061,47.311,23.967"/>
	<path d="M315.781,98.484c0,0.847-0.687,1.534-1.534,1.534c-0.848,0-1.535-0.687-1.535-1.534c0-0.847,0.687-1.534,1.535-1.534
		C315.094,96.95,315.781,97.637,315.781,98.484"/>
	<path d="M96.027,17.819c0,0.825-0.669,1.494-1.494,1.494s-1.494-0.669-1.494-1.494c0-0.825,0.669-1.494,1.494-1.494
		S96.027,16.994,96.027,17.819"/>
	<path d="M45.413,53.816c0,0.832-0.675,1.507-1.507,1.507s-1.507-0.675-1.507-1.507c0-0.832,0.675-1.507,1.507-1.507
		S45.413,52.984,45.413,53.816"/>
	<path d="M308.406,18.258c0,0.976-0.791,1.767-1.767,1.767c-0.976,0-1.767-0.791-1.767-1.767c0-0.976,0.791-1.767,1.767-1.767
		C307.615,16.491,308.406,17.282,308.406,18.258"/>
	<path d="M13.247,99.715c0,0.846-0.686,1.531-1.532,1.531c-0.845,0-1.531-0.685-1.531-1.531c0-0.846,0.686-1.532,1.531-1.532
		C12.561,98.183,13.247,98.869,13.247,99.715"/>
	<path d="M66.202,65.165c0,0.845-0.685,1.53-1.53,1.53c-0.845,0-1.531-0.685-1.531-1.53c0-0.845,0.686-1.53,1.531-1.53
		C65.517,63.635,66.202,64.32,66.202,65.165"/>
	<path d="M302.586,128.012c0,0.885-0.717,1.603-1.603,1.603c-0.885,0-1.602-0.718-1.602-1.603c0-0.885,0.717-1.603,1.602-1.603
		C301.869,126.409,302.586,127.127,302.586,128.012"/>
	<path d="M288.865,55.371c0,0.94-0.762,1.702-1.702,1.702c-0.941,0-1.703-0.762-1.703-1.702c0-0.94,0.762-1.703,1.703-1.703
		C288.103,53.668,288.865,54.431,288.865,55.371"/>
	<path d="M4.979,114.359c0,0.904-0.733,1.636-1.636,1.636c-0.904,0-1.637-0.732-1.637-1.636c0-0.904,0.733-1.636,1.637-1.636
		C4.246,112.723,4.979,113.455,4.979,114.359"/>
	<path d="M205.22,3.312c0,0.838-0.679,1.517-1.517,1.517c-0.838,0-1.518-0.679-1.518-1.517c0-0.838,0.68-1.517,1.518-1.517
		C204.541,1.795,205.22,2.474,205.22,3.312"/>
</g>
</svg>
