<?xml version="1.0" encoding="utf-8"?>
<!-- Generator: Adobe Illustrator 18.1.1, SVG Export Plug-In . SVG Version: 6.00 Build 0)  -->
<svg version="1.1" id="Layer_1" xmlns="http://www.w3.org/2000/svg" xmlns:xlink="http://www.w3.org/1999/xlink" x="0px" y="0px"
	 viewBox="0 0 341.3 85.7" enable-background="new 0 0 341.3 85.7" xml:space="preserve">
<path fill="none" stroke="#000000" stroke-width="0.75" stroke-miterlimit="10" d="M341.3,14C320,14,320,0.4,298.6,0.4
	C277.3,0.4,277.3,14,256,14S234.6,0.4,213.3,0.4C192,0.4,192,14,170.7,14S149.3,0.4,128,0.4C106.7,0.4,106.7,14,85.3,14
	C64,14,64,0.4,42.7,0.4S21.3,14,0,14 M341.3,28.3c-21.3,0-21.3-14.5-42.7-14.5c-21.3,0-21.3,14.5-42.7,14.5s-21.3-14.5-42.7-14.5
	c-21.3,0-21.3,14.5-42.7,14.5S149.3,13.8,128,13.8c-21.3,0-21.3,14.5-42.7,14.5C64,28.3,64,13.8,42.7,13.8S21.3,28.3,0,28.3
	 M341.3,42.5c-21.3,0-21.3-15.3-42.7-15.3c-21.3,0-21.3,15.3-42.7,15.3s-21.3-15.3-42.7-15.3c-21.3,0-21.3,15.3-42.7,15.3
	S149.3,27.2,128,27.2c-21.3,0-21.3,15.3-42.7,15.3C64,42.5,64,27.2,42.7,27.2S21.3,42.5,0,42.5 M341.3,56.8
	c-21.3,0-21.3-16.1-42.7-16.1c-21.3,0-21.3,16.1-42.7,16.1s-21.3-16.1-42.7-16.1c-21.3,0-21.3,16.1-42.7,16.1S149.3,40.7,128,40.7
	c-21.3,0-21.3,16.1-42.7,16.1C64,56.8,64,40.7,42.7,40.7S21.3,56.8,0,56.8 M341.3,71C320,71,320,54.1,298.6,54.1
	C277.3,54.1,277.3,71,256,71s-21.3-16.9-42.7-16.9C192,54.1,192,71,170.7,71S149.3,54.1,128,54.1c-21.3,0-21.3,16.9-42.7,16.9
	C64,71,64,54.1,42.7,54.1S21.3,71,0,71 M341.3,85.3c-21.3,0-21.3-17.7-42.7-17.7c-21.3,0-21.3,17.7-42.7,17.7s-21.3-17.7-42.7-17.7
	c-21.3,0-21.3,17.7-42.7,17.7S149.3,67.5,128,67.5c-21.3,0-21.3,17.7-42.7,17.7C64,85.3,64,67.5,42.7,67.5S21.3,85.3,0,85.3"/>
<path d="M300.9,82.6h0.8l-2.9-2.8l2.9-2.3h-0.8l-3.5,2.9v-2.9h-0.6v5h0.6V81l1.1-0.9C298.9,80.7,300.9,82.6,300.9,82.6 M211.6,77.5
	v5h0.6v-2.2h3v-0.5h-3V78h3.8v-0.5H211.6z M124.8,77.5v5.1h0.6v-4.4h0l2.5,4.5h0.5l2.5-4.5h0v4.4h0.6v-5.1h-0.8l-2.5,4.4h0l-2.5-4.4
	H124.8z M42.8,77.4c-1.9,0-3,1.2-3,2.7c0,1.5,1.1,2.6,2.9,2.6c1.1,0,1.9-0.4,2.4-0.8l-0.2-0.4c-0.5,0.3-1.2,0.7-2.1,0.7
	c-1.5,0-2.4-0.9-2.4-2.1c0-1.3,1-2.2,2.4-2.2c0.9,0,1.5,0.3,2,0.7l0.3-0.4C44.6,77.7,43.8,77.4,42.8,77.4"/>
</svg>
