<?xml version="1.0" encoding="utf-8"?>
<!-- Generator: Adobe Illustrator 18.1.1, SVG Export Plug-In . SVG Version: 6.00 Build 0)  -->
<svg version="1.1" id="Layer_1" xmlns="http://www.w3.org/2000/svg" xmlns:xlink="http://www.w3.org/1999/xlink" x="0px" y="0px"
	 width="612px" height="282.8px" viewBox="0 0 612 282.8" enable-background="new 0 0 612 282.8" xml:space="preserve">
<path fill="#F1B4B1" d="M300.8,11.2c0.5-0.5,1.2-1.2,1.7-1.7l0,0C301.9,10.1,301.3,10.6,300.8,11.2z"/>
<path fill="#F1B4B1" d="M304.1,11.1c-0.4-0.5-0.9-0.9-1.4-1.4C303.2,10.2,303.6,10.7,304.1,11.1z"/>
<path fill="#C51F4C" d="M302.7,9.8c-0.1-0.1-0.1-0.1-0.3-0.3l0,0C302.6,9.7,302.6,9.7,302.7,9.8z"/>
<g>
	<path fill="#21201F" d="M110.7,261v12.8c0,2.7-2.3,4.9-5,4.8l-97-0.1c-2.7,0-4.9-2.2-4.8-4.9c0,0,0-13.9,0-14.6
		c0-1.2,0.5-2.3,1.4-3.2l69.3-77.3H4.8c-2.7,0-4.9-2.2-4.8-4.8l0.1-13.1c0-2.7,2.2-4.9,4.9-4.8l96.9,0.1c2.7,0,4.9,2.2,4.8,4.9
		c0,0,0,11.9,0,13.8c0,1.4-0.4,2.6-1.3,3.7l-69.2,77.7h69.6C108.6,256.1,110.7,258.3,110.7,261"/>
	<path fill="#21201F" d="M226.9,280c-34.8-0.3-62.9-28.7-62.6-63.7c0.3-34.8,28.7-62.9,63.7-62.6c34.8,0.3,62.9,28.7,62.6,63.7
		C290.2,252.2,261.7,280.3,226.9,280 M227.7,177.6c-21.8-0.1-39.6,17.4-39.7,39c-0.1,21.8,17.4,39.6,39,39.7
		c21.8,0.1,39.6-17.4,39.7-39C266.9,195.5,249.4,177.7,227.7,177.6"/>
	<path fill="#21201F" d="M433.7,258.9v16.4c0,1.8-1.9,3.4-4.1,3.2h-67.8c-1.8,0-3.2-1.4-3.2-3.2V159c0-1.8,2.3-3.2,4.1-3.2h16.5
		c1.8,0,3.2,1.4,3.2,3.2v96.7h47.6C431.8,255.8,433.7,257.2,433.7,258.9"/>
	<path fill="#21201F" d="M608.5,278.5h-17.7c-1.4,0-2.7-0.9-3.2-2.1l-10.6-24.7h-57.5l-11.1,24.9c-0.5,1.3-1.8,2.1-3.2,2.1h-17.9
		c-2.6,0-4.3-2.7-3.2-5l52.7-115.5c0.6-1.3,1.7-2.2,3-2.2c3.5,0,16.5,0,18.4,0c1.4,0,2.4,1,3,2.3l50.5,115.3
		C612.8,275.9,611.1,278.6,608.5,278.5 M567.2,228.9l-18.3-41.8l-18.9,41.8H567.2z"/>
</g>
<path fill="#E12228" d="M250.5,96L250.5,96L250.5,96L250.5,96z"/>
<path fill="#02B4C0" d="M302.5,61.1c-0.4-0.5-0.8-0.9-1.2-1.4c-0.1-0.1-0.1-0.1-0.3-0.3c-0.3-0.4-0.6-0.8-0.9-1
	c-0.1-0.1-0.3-0.3-0.3-0.4c-0.3-0.4-0.5-0.6-0.8-1c-0.1-0.1-0.1-0.3-0.3-0.4c-0.3-0.4-0.6-0.9-0.9-1.3c0,0,0,0,0-0.1
	c-0.3-0.5-0.6-0.9-0.9-1.4c-0.1-0.1-0.1-0.3-0.3-0.4c-0.3-0.4-0.4-0.6-0.6-1c-0.1-0.1-0.1-0.4-0.3-0.5c-0.1-0.4-0.4-0.6-0.5-1
	c-0.1-0.1-0.1-0.3-0.3-0.4c-0.3-0.5-0.5-0.9-0.8-1.4c-0.3-0.5-0.4-1-0.6-1.4c-0.1-0.1-0.1-0.3-0.1-0.5c-0.1-0.4-0.3-0.6-0.4-1
	c0-0.1-0.1-0.4-0.1-0.5c-0.1-0.4-0.3-0.6-0.3-1c0-0.1-0.1-0.4-0.1-0.5c-0.1-0.4-0.3-0.8-0.4-1.3c0-0.1,0-0.1-0.1-0.3
	c-0.1-0.5-0.3-1-0.3-1.5c0-0.1,0-0.4-0.1-0.5c0-0.4-0.1-0.6-0.1-1c0-0.3,0-0.4-0.1-0.6c0-0.3-0.1-0.6-0.1-0.9s0-0.4,0-0.6
	c0-0.4,0-0.6,0-1c0-0.1,0-0.3,0-0.5c0-0.5,0-1,0-1.4c0-0.1,0-0.4,0-0.5c0-0.3,0-0.6,0-0.9s0-0.4,0-0.6s0-0.5,0.1-0.9
	c0-0.3,0-0.4,0.1-0.6c0-0.3,0.1-0.5,0.1-0.9c0-0.3,0-0.4,0.1-0.6c0.1-0.5,0.1-0.9,0.3-1.4c0-0.3,0.1-0.4,0.1-0.6
	c0-0.3,0.1-0.5,0.1-0.8c0-0.3,0.1-0.5,0.3-0.8c0.1-0.3,0.1-0.5,0.3-0.6c0.1-0.3,0.1-0.5,0.3-0.8c0.1-0.3,0.1-0.4,0.3-0.6
	c0.1-0.3,0.1-0.5,0.3-0.8s0.1-0.4,0.3-0.6c0.3-0.5,0.4-0.9,0.6-1.4c0.1-0.1,0.1-0.4,0.3-0.5c0.1-0.3,0.3-0.5,0.4-0.8
	c0.1-0.1,0.1-0.4,0.3-0.5c0.1-0.3,0.3-0.5,0.4-0.8c0.1-0.1,0.1-0.4,0.3-0.5c0.1-0.3,0.3-0.5,0.5-0.8c0.1-0.1,0.1-0.3,0.3-0.4
	c0.4-0.5,0.8-1.2,1.2-1.7c0-0.1,0.1-0.1,0.1-0.3c0.1-0.3,0.4-0.5,0.6-0.8c0.1-0.1,0.3-0.3,0.3-0.4c0.3-0.3,0.4-0.5,0.6-0.8
	c0.1-0.1,0.3-0.3,0.4-0.4c0.3-0.3,0.4-0.5,0.6-0.8c0.1-0.1,0.3-0.3,0.3-0.3c0.5-0.5,1.2-1.2,1.7-1.7c-2.6-2.3-5.5-4.4-8.9-5.9
	c-0.8-0.4-1.7-0.8-2.4-1C287.3,0.8,283,0,278.9,0h-0.1c-7.5,0-14.6,2.4-20.5,6.8c-3,2.2-5.4,4.9-7.6,8c1,1.4,1.8,3,2.6,4.6
	c3.7,7.9,5,17.8,4.9,27.8l0,0c0,23.7-7.5,48.1-7.6,48.3c0.3-0.1,3.1-1.3,7.6-3.5c8.1-4,21.4-11.3,33-20.6
	C295.2,68.4,299.1,64.8,302.5,61.1L302.5,61.1L302.5,61.1L302.5,61.1L302.5,61.1z"/>
<path fill="#F1B4B1" d="M354.4,96L354.4,96L354.4,96L354.4,96z"/>
<path fill="#C6E4EA" d="M351.7,19.7c0.8-1.7,1.7-3.2,2.6-4.6c-2.1-3.1-4.6-5.8-7.6-8c-9.1-6.8-21.5-8.9-33-4.5
	c-0.8,0.3-1.7,0.6-2.4,1c-3.4,1.5-6.3,3.6-8.9,5.9l0,0l0,0c0.1,0.1,0.1,0.1,0.3,0.3c0.5,0.4,0.9,0.9,1.4,1.4
	c0.1,0.1,0.3,0.3,0.4,0.4c0.3,0.3,0.4,0.4,0.6,0.6c0.1,0.1,0.3,0.3,0.4,0.5c0.3,0.3,0.4,0.5,0.5,0.6c0.1,0.1,0.3,0.3,0.4,0.5
	s0.4,0.5,0.5,0.8c0.1,0.1,0.1,0.3,0.3,0.4c0.4,0.5,0.6,0.9,1,1.4c0.1,0.1,0.3,0.3,0.3,0.5c0.1,0.3,0.3,0.5,0.4,0.8
	c0.1,0.1,0.3,0.4,0.3,0.5c0.1,0.3,0.3,0.5,0.4,0.8c0.1,0.1,0.3,0.4,0.3,0.5c0.1,0.3,0.3,0.5,0.4,0.8s0.1,0.4,0.3,0.6
	c0.1,0.4,0.4,0.9,0.5,1.3c0.1,0.3,0.3,0.5,0.3,0.6c0.1,0.3,0.1,0.5,0.3,0.8c0.1,0.3,0.1,0.5,0.3,0.6c0.1,0.3,0.1,0.5,0.3,0.8
	c0.1,0.3,0.1,0.5,0.3,0.8c0.1,0.3,0.1,0.5,0.3,0.6c0.1,0.3,0.1,0.5,0.3,0.8c0,0.3,0.1,0.4,0.1,0.6c0.1,0.5,0.1,0.9,0.3,1.4
	c0,0.3,0,0.4,0.1,0.6c0,0.3,0.1,0.6,0.1,0.9c0,0.3,0,0.4,0.1,0.6c0,0.3,0,0.6,0.1,0.9c0,0.3,0,0.4,0,0.6c0,0.4,0,0.6,0,1
	c0,0.1,0,0.4,0,0.5c0,0.5,0,1,0,1.4c0,0.1,0,0.3,0,0.4c0,0.4,0,0.8,0,1c0,0.1,0,0.4,0,0.5c0,0.4,0,0.6-0.1,1c0,0.1,0,0.4-0.1,0.5
	c0,0.4-0.1,0.6-0.1,1c0,0.1,0,0.3-0.1,0.5c-0.1,0.5-0.3,1-0.3,1.5c0,0.1,0,0.1,0,0.3c-0.1,0.4-0.3,0.9-0.4,1.3
	c0,0.1-0.1,0.4-0.1,0.5c-0.1,0.4-0.3,0.6-0.4,1c0,0.1-0.1,0.4-0.1,0.5c-0.1,0.4-0.3,0.6-0.4,1c0,0.1-0.1,0.3-0.1,0.5
	c-0.3,0.5-0.4,1-0.6,1.4c-0.3,0.5-0.5,0.9-0.8,1.4c-0.1,0.1-0.1,0.3-0.3,0.5c-0.1,0.4-0.4,0.6-0.5,1c-0.1,0.1-0.1,0.4-0.3,0.5
	c-0.3,0.4-0.4,0.6-0.6,1c-0.1,0.1-0.1,0.3-0.3,0.4c-0.3,0.5-0.6,0.9-0.9,1.4c0,0,0,0,0,0.1c-0.3,0.4-0.6,0.9-0.9,1.3
	c-0.1,0.1-0.1,0.3-0.3,0.4c-0.3,0.4-0.5,0.6-0.8,1c-0.1,0.1-0.1,0.3-0.3,0.4c-0.3,0.4-0.6,0.8-0.9,1.2c0,0.1-0.1,0.1-0.1,0.3
	c-0.4,0.5-0.8,0.9-1.2,1.4l0,0c3.4,3.7,7.2,7.3,11.3,10.7c11.6,9.4,24.9,16.6,33,20.6c4.4,2.2,7.3,3.5,7.6,3.5
	C354.3,95.5,339.3,46.4,351.7,19.7z"/>
<path fill="#356181" d="M250.7,96L250.7,96C250.5,96,250.5,96,250.7,96C250.5,96,250.7,96,250.7,96z"/>
<path fill="#346182" d="M243.1,47.6c0-10.1,1.3-20,4.9-27.8c0.8-1.7,1.7-3.2,2.6-4.6c-2.1-3.1-4.6-5.8-7.6-8
	c-9.8-7.3-23.5-9.1-35.4-3.5c-17.3,8.1-25,28.4-17,45.4c9.4,20.1,38.5,36.6,52.4,43.4c4.4,2.2,7.3,3.5,7.6,3.5
	C250.5,95.6,243.1,71.4,243.1,47.6L243.1,47.6z"/>
<path fill="#013D57" d="M258.1,47.6c0-10.1-1.3-19.8-4.9-27.8c-0.8-1.7-1.7-3.2-2.6-4.6c-1,1.4-1.8,3-2.6,4.6
	c-3.7,8-5,17.9-4.9,27.8v0.1c0.1,23.7,7.5,47.9,7.6,48.2l0,0l0,0C250.7,95.6,258.1,71.3,258.1,47.6L258.1,47.6z"/>
<path fill="#E6E461" d="M354.4,96L354.4,96L354.4,96L354.4,96z"/>
<path fill="#DCDDDE" d="M397.4,3.6c-4.9-2.3-9.9-3.4-14.9-3.4h-0.1c-7.5,0-14.6,2.4-20.5,6.8c-3,2.2-5.4,4.9-7.6,8
	c1,1.4,1.8,3,2.6,4.6c3.7,7.9,5,17.7,4.9,27.7v0.4c-0.1,23.7-7.5,47.8-7.6,48.2c0.3-0.1,3.1-1.3,7.6-3.5c13.9-7,43.2-23.3,52.4-43.4
	C422.3,32,414.7,11.7,397.4,3.6z"/>
<path fill="#AAC6CC" d="M361.9,47.4c0-9.9-1.3-19.8-4.9-27.7c-0.8-1.7-1.7-3.2-2.6-4.6c-1,1.4-1.8,3-2.6,4.6
	c-12.5,26.7,2.4,75.8,2.6,76.3l0,0l0,0c0.1-0.3,7.5-24.5,7.6-48.2v-0.4H361.9z"/>
<path fill="#1D9CAA" d="M300.8,11.2c-0.1,0.1-0.3,0.3-0.3,0.3c-0.3,0.3-0.4,0.5-0.6,0.8c-0.1,0.1-0.3,0.3-0.4,0.4
	c-0.3,0.3-0.4,0.5-0.6,0.8c-0.1,0.1-0.3,0.3-0.3,0.4c-0.3,0.3-0.4,0.5-0.6,0.8c0,0.1-0.1,0.1-0.1,0.3c-0.4,0.5-0.8,1.2-1.2,1.7
	c-0.1,0.1-0.1,0.3-0.3,0.4c-0.1,0.3-0.3,0.5-0.5,0.8c-0.1,0.1-0.1,0.4-0.3,0.5c-0.1,0.3-0.3,0.5-0.4,0.8c-0.1,0.1-0.1,0.4-0.3,0.5
	c-0.1,0.3-0.3,0.5-0.4,0.8c-0.1,0.1-0.1,0.4-0.3,0.5c-0.3,0.5-0.4,0.9-0.6,1.4c-0.1,0.3-0.1,0.4-0.3,0.6c-0.1,0.3-0.1,0.5-0.3,0.8
	c-0.1,0.3-0.1,0.4-0.3,0.6s-0.1,0.5-0.3,0.8c-0.1,0.3-0.1,0.5-0.3,0.6c-0.1,0.3-0.1,0.5-0.3,0.8c-0.1,0.3-0.1,0.5-0.1,0.8
	c0,0.3-0.1,0.4-0.1,0.6c-0.1,0.5-0.1,0.9-0.3,1.4c0,0.3-0.1,0.4-0.1,0.6c0,0.3-0.1,0.5-0.1,0.9c0,0.3,0,0.4-0.1,0.6
	c0,0.3,0,0.5-0.1,0.9c0,0.3,0,0.4,0,0.6s0,0.6,0,0.9c0,0.1,0,0.4,0,0.5c0,0.5,0,1,0,1.4c0,0.1,0,0.3,0,0.5c0,0.4,0,0.6,0,1
	c0,0.3,0,0.4,0,0.6s0,0.6,0.1,0.9c0,0.3,0,0.4,0.1,0.6c0,0.4,0.1,0.6,0.1,1c0,0.1,0,0.4,0.1,0.5c0.1,0.5,0.3,1,0.3,1.5
	c0,0.1,0,0.1,0.1,0.3c0.1,0.4,0.3,0.8,0.4,1.3c0,0.1,0.1,0.4,0.1,0.5c0.1,0.4,0.3,0.6,0.3,1c0,0.1,0.1,0.4,0.1,0.5
	c0.1,0.4,0.3,0.6,0.4,1c0,0.1,0.1,0.3,0.1,0.5c0.3,0.5,0.4,1,0.6,1.4c0.3,0.5,0.5,0.9,0.8,1.4c0.1,0.1,0.1,0.3,0.3,0.4
	c0.1,0.4,0.4,0.6,0.5,1c0.1,0.1,0.1,0.4,0.3,0.5c0.3,0.4,0.4,0.6,0.6,1c0.1,0.1,0.1,0.3,0.3,0.4c0.3,0.5,0.6,0.9,0.9,1.4
	c0,0,0,0,0,0.1c0.3,0.4,0.6,0.9,0.9,1.3c0.1,0.1,0.1,0.3,0.3,0.4c0.3,0.4,0.5,0.6,0.8,1c0.1,0.1,0.3,0.3,0.3,0.4
	c0.3,0.4,0.6,0.8,0.9,1c0.1,0.1,0.1,0.1,0.3,0.3c0.4,0.5,0.8,0.9,1.2,1.4l0,0c0.4-0.5,0.8-0.9,1.2-1.4c0-0.1,0.1-0.1,0.1-0.3
	c0.3-0.4,0.6-0.8,0.9-1.2c0.1-0.1,0.1-0.3,0.3-0.4c0.3-0.4,0.5-0.6,0.8-1c0.1-0.1,0.1-0.3,0.3-0.4c0.3-0.4,0.6-0.9,0.9-1.3
	c0,0,0,0,0-0.1c0.3-0.5,0.6-0.9,0.9-1.4c0.1-0.1,0.1-0.3,0.3-0.4c0.3-0.4,0.4-0.6,0.6-1c0.1-0.1,0.1-0.4,0.3-0.5
	c0.1-0.4,0.4-0.6,0.5-1c0.1-0.1,0.1-0.3,0.3-0.5c0.3-0.5,0.5-0.9,0.8-1.4c0.3-0.5,0.4-1,0.6-1.4c0-0.1,0.1-0.3,0.1-0.5
	c0.1-0.4,0.3-0.6,0.4-1c0-0.1,0.1-0.4,0.1-0.5c0.1-0.4,0.3-0.6,0.4-1c0-0.1,0.1-0.4,0.1-0.5c0.1-0.4,0.3-0.9,0.4-1.3
	c0-0.1,0-0.1,0-0.3c0.1-0.5,0.3-1,0.3-1.5c0-0.1,0-0.3,0.1-0.5c0-0.4,0.1-0.6,0.1-1c0-0.1,0-0.4,0.1-0.5c0-0.4,0.1-0.6,0.1-1
	c0-0.1,0-0.4,0-0.5c0-0.4,0-0.8,0-1c0-0.1,0-0.3,0-0.4c0-0.5,0-1,0-1.4c0-0.1,0-0.4,0-0.5c0-0.4,0-0.6,0-1c0-0.3,0-0.4,0-0.6
	s0-0.6-0.1-0.9c0-0.3,0-0.4-0.1-0.6c0-0.3-0.1-0.6-0.1-0.9c0-0.3,0-0.4-0.1-0.6c-0.1-0.5-0.1-0.9-0.3-1.4c0-0.3-0.1-0.4-0.1-0.6
	c-0.1-0.3-0.1-0.5-0.3-0.8c0-0.3-0.1-0.5-0.3-0.6c-0.1-0.3-0.1-0.5-0.3-0.8c-0.1-0.3-0.1-0.5-0.3-0.8c-0.1-0.3-0.1-0.5-0.3-0.6
	c-0.1-0.3-0.1-0.5-0.3-0.8c-0.1-0.3-0.1-0.5-0.3-0.6c-0.1-0.4-0.4-0.9-0.5-1.3c-0.1-0.3-0.1-0.4-0.3-0.6c-0.1-0.3-0.3-0.5-0.4-0.8
	c-0.1-0.1-0.3-0.4-0.3-0.5c-0.1-0.3-0.3-0.5-0.4-0.8c-0.1-0.1-0.3-0.4-0.3-0.5c-0.1-0.3-0.3-0.5-0.4-0.8c-0.1-0.1-0.3-0.3-0.3-0.5
	c-0.3-0.5-0.6-1-1-1.4c-0.1-0.1-0.1-0.3-0.3-0.4c-0.1-0.3-0.4-0.5-0.5-0.8c-0.1-0.1-0.3-0.3-0.4-0.5s-0.4-0.5-0.5-0.6
	c-0.1-0.1-0.3-0.3-0.4-0.5c-0.3-0.3-0.4-0.5-0.6-0.6c-0.1-0.1-0.3-0.3-0.4-0.4c-0.4-0.5-0.9-0.9-1.4-1.4c-0.1-0.1-0.1-0.1-0.3-0.3
	C301.9,10.1,301.3,10.6,300.8,11.2z"/>
<path fill="#C51F4C" d="M294.3,49c-0.3-0.5-0.4-1-0.6-1.4C293.8,47.9,294.1,48.5,294.3,49z"/>
</svg>
